<svg width="216" height="30" viewBox="0 0 216 30" fill="none" xmlns="http://www.w3.org/2000/svg">
<path d="M199.847 29.8792C197.694 29.8792 195.915 29.6866 194.51 29.3013C193.105 28.9161 191.994 28.4062 191.179 27.7717C190.363 27.1371 189.796 26.4006 189.479 25.5622C189.162 24.7237 189.003 23.8512 189.003 22.9448V20.3274C189.003 19.2169 189.162 18.2765 189.479 17.506C189.819 16.7355 190.261 16.1237 190.805 15.6704L191.859 14.7866C191.405 14.4014 191.077 13.9255 190.873 13.3589C190.691 12.7698 190.601 12.1126 190.601 11.3874V9.41585C190.601 8.6227 190.725 7.89753 190.975 7.24035C191.224 6.5605 191.643 5.98263 192.232 5.50674L196.617 1.80159C197.297 1.23505 198.249 0.793154 199.473 0.475893C200.719 0.158631 202.317 0 204.266 0C206.079 0 207.574 0.135969 208.753 0.407908C209.954 0.679846 210.894 1.06509 211.574 1.56364C212.277 2.0622 212.764 2.66273 213.036 3.36523C213.308 4.06774 213.444 4.84956 213.444 5.7107V7.68225C213.444 8.43007 213.342 9.09859 213.138 9.68779C212.934 10.2543 212.605 10.7302 212.152 11.1155L211.982 11.2514C212.866 11.5914 213.591 12.2032 214.157 13.087C214.747 13.9481 215.041 15.1265 215.041 16.6222V19.9195C215.041 20.7579 214.905 21.5284 214.633 22.2309C214.361 22.9334 213.908 23.5566 213.274 24.1005L208.889 27.7717C208.118 28.4288 206.996 28.9387 205.523 29.3013C204.073 29.6866 202.181 29.8792 199.847 29.8792ZM214.701 16.6222C214.701 15.0359 214.35 13.8122 213.648 12.951C212.968 12.0899 212.118 11.5574 211.098 11.3534C211.846 11.0361 212.367 10.5603 212.662 9.92573C212.956 9.29121 213.104 8.54338 213.104 7.68225V5.7107C213.104 4.87222 212.956 4.12439 212.662 3.46721C212.39 2.81003 211.914 2.25482 211.234 1.80159C210.577 1.3257 209.67 0.963114 208.515 0.713838C207.382 0.464562 205.965 0.339924 204.266 0.339924C202.566 0.339924 201.138 0.464562 199.983 0.713838C198.827 0.963114 197.909 1.3257 197.229 1.80159C196.549 2.25482 196.062 2.81003 195.768 3.46721C195.473 4.12439 195.326 4.87222 195.326 5.7107V7.68225C195.326 8.54338 195.473 9.29121 195.768 9.92573C196.062 10.5603 196.583 11.0361 197.331 11.3534C196.312 11.5574 195.45 12.0899 194.748 12.951C194.068 13.8122 193.728 15.0359 193.728 16.6222V19.9195C193.728 20.8032 193.887 21.6077 194.204 22.3329C194.544 23.0581 195.11 23.6813 195.904 24.2025C196.697 24.7237 197.773 25.1203 199.133 25.3922C200.493 25.6868 202.192 25.8341 204.232 25.8341C206.271 25.8341 207.96 25.6868 209.297 25.3922C210.656 25.1203 211.733 24.7237 212.526 24.2025C213.319 23.6813 213.874 23.0581 214.191 22.3329C214.531 21.6077 214.701 20.8032 214.701 19.9195V16.6222ZM204.232 23.0467C202.872 23.0467 201.739 22.9561 200.832 22.7748C199.949 22.5935 199.246 22.3442 198.725 22.027C198.204 21.7097 197.841 21.3358 197.637 20.9052C197.433 20.452 197.331 19.9648 197.331 19.4436V16.3163C197.331 15.4551 197.637 14.7073 198.249 14.0728C198.884 13.4383 200.017 13.0077 201.648 12.7811C200.561 12.5998 199.767 12.2712 199.269 11.7953C198.793 11.2968 198.555 10.6509 198.555 9.85775V6.35655C198.555 5.31412 199.008 4.52097 199.915 3.97709C200.821 3.43322 202.26 3.16128 204.232 3.16128C206.203 3.16128 207.631 3.44455 208.515 4.01108C209.421 4.57762 209.874 5.45009 209.874 6.62849V9.85775C209.874 10.6509 209.636 11.2968 209.161 11.7953C208.685 12.2712 207.903 12.5998 206.815 12.7811C208.447 13.0077 209.568 13.4383 210.18 14.0728C210.792 14.6846 211.098 15.4211 211.098 16.2823V19.4436C211.098 19.9648 210.996 20.452 210.792 20.9052C210.588 21.3358 210.226 21.7097 209.704 22.027C209.206 22.3442 208.503 22.5935 207.597 22.7748C206.713 22.9561 205.591 23.0467 204.232 23.0467ZM198.895 6.35655V9.85775C198.895 10.8322 199.337 11.5347 200.221 11.9653C201.104 12.3958 202.441 12.6111 204.232 12.6111C206.022 12.6111 207.348 12.3958 208.209 11.9653C209.093 11.5347 209.534 10.8322 209.534 9.85775V6.62849C209.534 5.51807 209.093 4.72492 208.209 4.24903C207.325 3.75048 205.999 3.5012 204.232 3.5012C202.464 3.5012 201.127 3.73915 200.221 4.21504C199.337 4.66827 198.895 5.38211 198.895 6.35655ZM202.09 9.00794V7.51228C202.09 7.17236 202.203 6.88909 202.43 6.66248C202.679 6.4132 203.28 6.28856 204.232 6.28856C205.206 6.28856 205.795 6.4132 205.999 6.66248C206.226 6.88909 206.339 7.17236 206.339 7.51228V9.00794C206.339 9.37053 206.226 9.67646 205.999 9.92573C205.795 10.1523 205.206 10.2657 204.232 10.2657C203.28 10.2657 202.679 10.1523 202.43 9.92573C202.203 9.67646 202.09 9.37053 202.09 9.00794ZM197.671 16.3163V19.4436C197.671 20.418 198.147 21.2112 199.099 21.823C200.073 22.4122 201.784 22.7068 204.232 22.7068C206.679 22.7068 208.379 22.4122 209.331 21.823C210.282 21.2112 210.758 20.418 210.758 19.4436V16.2823C210.758 15.3078 210.271 14.5147 209.297 13.9028C208.345 13.2683 206.656 12.951 204.232 12.951C201.807 12.951 200.107 13.2683 199.133 13.9028C198.158 14.5373 197.671 15.3418 197.671 16.3163ZM201.24 18.6277V16.8262C201.24 16.4862 201.433 16.203 201.818 15.9764C202.203 15.7271 203.008 15.6024 204.232 15.6024C205.455 15.6024 206.249 15.7271 206.611 15.9764C206.996 16.203 207.189 16.4862 207.189 16.8262V18.6277C207.189 18.9903 206.996 19.2963 206.611 19.5455C206.249 19.7722 205.455 19.8855 204.232 19.8855C203.008 19.8855 202.203 19.7722 201.818 19.5455C201.433 19.2963 201.24 18.9903 201.24 18.6277Z" fill="#FF4638"/>
<path fill-rule="evenodd" clip-rule="evenodd" d="M214.701 16.6222C214.701 15.0359 214.35 13.8122 213.648 12.951C212.968 12.0899 212.118 11.5574 211.098 11.3534C211.846 11.0361 212.367 10.5603 212.662 9.92573C212.956 9.29121 213.104 8.54338 213.104 7.68225V5.7107C213.104 4.87222 212.956 4.12439 212.662 3.46721C212.39 2.81003 211.914 2.25482 211.234 1.80159C210.577 1.3257 209.67 0.963114 208.515 0.713838C207.382 0.464562 205.965 0.339924 204.266 0.339924C202.566 0.339924 201.138 0.464562 199.983 0.713838C198.827 0.963114 197.909 1.3257 197.229 1.80159C196.549 2.25482 196.062 2.81003 195.768 3.46721C195.473 4.12439 195.326 4.87222 195.326 5.7107V7.68225C195.326 8.54338 195.473 9.29121 195.768 9.92573C196.062 10.5603 196.583 11.0361 197.331 11.3534C196.312 11.5574 195.45 12.0899 194.748 12.951C194.068 13.8122 193.728 15.0359 193.728 16.6222V19.9195C193.728 20.8032 193.887 21.6077 194.204 22.3329C194.544 23.0581 195.11 23.6813 195.904 24.2025C196.697 24.7237 197.773 25.1203 199.133 25.3922C200.493 25.6868 202.192 25.8341 204.232 25.8341C206.271 25.8341 207.96 25.6868 209.297 25.3922C210.656 25.1203 211.733 24.7237 212.526 24.2025C213.319 23.6813 213.874 23.0581 214.191 22.3329C214.531 21.6077 214.701 20.8032 214.701 19.9195V16.6222ZM200.832 22.7748C201.739 22.9561 202.872 23.0467 204.232 23.0467C205.591 23.0467 206.713 22.9561 207.597 22.7748C208.503 22.5935 209.206 22.3442 209.704 22.027C210.226 21.7097 210.588 21.3358 210.792 20.9052C210.996 20.452 211.098 19.9648 211.098 19.4436V16.2823C211.098 15.4211 210.792 14.6846 210.18 14.0728C209.568 13.4383 208.447 13.0077 206.815 12.7811C207.903 12.5998 208.685 12.2712 209.161 11.7953C209.636 11.2968 209.874 10.6509 209.874 9.85775V6.62849C209.874 5.45009 209.421 4.57762 208.515 4.01108C207.631 3.44455 206.203 3.16128 204.232 3.16128C202.26 3.16128 200.821 3.43322 199.915 3.97709C199.008 4.52097 198.555 5.31412 198.555 6.35655V9.85775C198.555 10.6509 198.793 11.2968 199.269 11.7953C199.767 12.2712 200.561 12.5998 201.648 12.7811C200.017 13.0077 198.884 13.4383 198.249 14.0728C197.637 14.7073 197.331 15.4551 197.331 16.3163V19.4436C197.331 19.9648 197.433 20.452 197.637 20.9052C197.841 21.3358 198.204 21.7097 198.725 22.027C199.246 22.3442 199.949 22.5935 200.832 22.7748Z" fill="white"/>
<path fill-rule="evenodd" clip-rule="evenodd" d="M198.895 6.35655V9.85775C198.895 10.8322 199.337 11.5347 200.221 11.9653C201.104 12.3958 202.441 12.6111 204.232 12.6111C206.022 12.6111 207.348 12.3958 208.209 11.9653C209.093 11.5347 209.534 10.8322 209.534 9.85775V6.62849C209.534 5.51807 209.093 4.72492 208.209 4.24903C207.325 3.75048 205.999 3.5012 204.232 3.5012C202.464 3.5012 201.127 3.73915 200.221 4.21504C199.337 4.66827 198.895 5.38211 198.895 6.35655ZM202.09 7.51228V9.00794C202.09 9.37053 202.203 9.67646 202.43 9.92573C202.679 10.1523 203.28 10.2657 204.232 10.2657C205.206 10.2657 205.795 10.1523 205.999 9.92573C206.226 9.67646 206.339 9.37053 206.339 9.00794V7.51228C206.339 7.17236 206.226 6.88909 205.999 6.66248C205.795 6.4132 205.206 6.28856 204.232 6.28856C203.28 6.28856 202.679 6.4132 202.43 6.66248C202.203 6.88909 202.09 7.17236 202.09 7.51228Z" fill="white"/>
<path fill-rule="evenodd" clip-rule="evenodd" d="M197.671 16.3163V19.4436C197.671 20.418 198.147 21.2112 199.099 21.823C200.073 22.4122 201.784 22.7068 204.232 22.7068C206.679 22.7068 208.379 22.4122 209.331 21.823C210.282 21.2112 210.758 20.418 210.758 19.4436V16.2823C210.758 15.3078 210.271 14.5147 209.297 13.9028C208.345 13.2683 206.656 12.951 204.232 12.951C201.807 12.951 200.107 13.2683 199.133 13.9028C198.158 14.5373 197.671 15.3418 197.671 16.3163ZM201.24 16.8262V18.6277C201.24 18.9903 201.433 19.2963 201.818 19.5455C202.203 19.7722 203.008 19.8855 204.232 19.8855C205.455 19.8855 206.249 19.7722 206.611 19.5455C206.996 19.2963 207.189 18.9903 207.189 18.6277V16.8262C207.189 16.4862 206.996 16.203 206.611 15.9764C206.249 15.7271 205.455 15.6024 204.232 15.6024C203.008 15.6024 202.203 15.7271 201.818 15.9764C201.433 16.203 201.24 16.4862 201.24 16.8262Z" fill="white"/>
<path d="M169.984 4.18056L182.493 18.2533V3.90862H182.833V22.2644H182.493V18.7632L169.644 4.35052C169.621 4.32786 169.587 4.3052 169.542 4.28254C169.519 4.25988 169.496 4.24855 169.474 4.24855C169.451 4.24855 169.428 4.25988 169.406 4.28254C169.406 4.3052 169.406 4.32786 169.406 4.35052V22.2644H169.066V4.28254C169.066 4.14657 169.111 4.04459 169.202 3.97661C169.292 3.90862 169.383 3.87463 169.474 3.87463C169.564 3.87463 169.644 3.89729 169.712 3.94262C169.78 3.98794 169.87 4.06725 169.984 4.18056ZM171.819 25.3237C172.25 25.3237 172.556 25.2331 172.737 25.0518C172.941 24.8478 173.043 24.5306 173.043 24.1V12.8826L178.856 19.919V24.1C178.856 24.5306 178.946 24.8478 179.128 25.0518C179.331 25.2331 179.649 25.3237 180.079 25.3237H185.178C185.609 25.3237 185.915 25.2331 186.096 25.0518C186.3 24.8478 186.402 24.5306 186.402 24.1V2.07304C186.402 1.64247 186.3 1.33654 186.096 1.15525C185.915 0.951298 185.609 0.849321 185.178 0.849321H180.079C179.649 0.849321 179.331 0.951298 179.128 1.15525C178.946 1.33654 178.856 1.64247 178.856 2.07304V9.31339L172.261 1.76711C171.967 1.42719 171.661 1.18924 171.343 1.05327C171.049 0.917306 170.686 0.849321 170.256 0.849321H166.72C166.29 0.849321 165.973 0.951298 165.769 1.15525C165.587 1.33654 165.497 1.64247 165.497 2.07304V24.1C165.497 24.5306 165.587 24.8478 165.769 25.0518C165.973 25.2331 166.29 25.3237 166.72 25.3237H171.819ZM172.907 25.3577L168.488 29.0289C168.397 29.1195 168.25 29.1988 168.046 29.2668C167.865 29.3348 167.661 29.3688 167.434 29.3688H162.335C161.791 29.3688 161.395 29.2442 161.146 28.9949C160.896 28.7456 160.772 28.349 160.772 27.8052V5.77819C160.772 5.4836 160.806 5.23432 160.874 5.03037C160.964 4.82641 161.089 4.65645 161.248 4.52048L165.633 0.81533C165.746 0.724683 165.893 0.656699 166.075 0.611375C166.278 0.543391 166.494 0.509399 166.72 0.509399H170.256C170.754 0.509399 171.173 0.588714 171.513 0.747344C171.853 0.905975 172.193 1.16658 172.533 1.52917L174.879 4.24855L178.992 0.81533C179.105 0.724683 179.252 0.656699 179.433 0.611375C179.637 0.543391 179.853 0.509399 180.079 0.509399H185.178C185.722 0.509399 186.119 0.634037 186.368 0.883313C186.617 1.13259 186.742 1.52917 186.742 2.07304V24.1C186.742 24.3946 186.696 24.6439 186.606 24.8478C186.538 25.0518 186.425 25.2218 186.266 25.3577L181.847 29.0289C181.756 29.1195 181.609 29.1988 181.405 29.2668C181.224 29.3348 181.02 29.3688 180.793 29.3688H175.694C175.15 29.3688 174.754 29.2442 174.505 28.9949C174.255 28.7456 174.131 28.349 174.131 27.8052V23.7601L173.383 22.8423V24.1C173.383 24.3946 173.338 24.6439 173.247 24.8478C173.179 25.0518 173.066 25.2218 172.907 25.3577Z" fill="#FF4638"/>
<path fill-rule="evenodd" clip-rule="evenodd" d="M171.819 25.3237C172.25 25.3237 172.556 25.2331 172.737 25.0518C172.941 24.8478 173.043 24.5306 173.043 24.1V12.8826L178.856 19.919V24.1C178.856 24.5306 178.946 24.8478 179.128 25.0518C179.331 25.2331 179.649 25.3237 180.079 25.3237H185.178C185.609 25.3237 185.915 25.2331 186.096 25.0518C186.3 24.8478 186.402 24.5306 186.402 24.1V2.07304C186.402 1.64247 186.3 1.33654 186.096 1.15525C185.915 0.951298 185.609 0.849321 185.178 0.849321H180.079C179.649 0.849321 179.331 0.951298 179.128 1.15525C178.946 1.33654 178.856 1.64247 178.856 2.07304V9.31339L172.261 1.76711C171.967 1.42719 171.661 1.18924 171.343 1.05327C171.049 0.917306 170.686 0.849321 170.256 0.849321H166.72C166.29 0.849321 165.973 0.951298 165.769 1.15525C165.587 1.33654 165.497 1.64247 165.497 2.07304V24.1C165.497 24.5306 165.587 24.8478 165.769 25.0518C165.973 25.2331 166.29 25.3237 166.72 25.3237H171.819ZM182.493 18.2533L169.984 4.18056C169.87 4.06725 169.78 3.98794 169.712 3.94262C169.644 3.89729 169.564 3.87463 169.474 3.87463C169.383 3.87463 169.292 3.90862 169.202 3.97661C169.111 4.04459 169.066 4.14657 169.066 4.28254V22.2644H169.406V4.35052V4.28254C169.428 4.25988 169.451 4.24855 169.474 4.24855C169.496 4.24855 169.519 4.25988 169.542 4.28254C169.587 4.3052 169.621 4.32786 169.644 4.35052L182.493 18.7632V22.2644H182.833V3.90862H182.493V18.2533Z" fill="white"/>
<path d="M151.699 27.7377C150.906 28.4175 149.796 28.9387 148.368 29.3013C146.941 29.6866 145.105 29.8792 142.861 29.8792C140.641 29.8792 138.816 29.6412 137.389 29.1653C135.984 28.7121 134.873 28.1002 134.057 27.3298C133.264 26.5593 132.709 25.6755 132.392 24.6784C132.097 23.6813 131.95 22.6502 131.95 21.5851V11.0135C131.95 9.97106 132.097 9.00794 132.392 8.12414C132.686 7.21769 133.219 6.4472 133.989 5.81267L138.408 2.14151C139.202 1.46167 140.301 0.940453 141.706 0.577869C143.133 0.192623 144.98 0 147.246 0C149.467 0 151.28 0.181292 152.685 0.543877C154.113 0.90646 155.223 1.41634 156.016 2.07353C156.832 2.70805 157.387 3.47854 157.682 4.385C157.977 5.2688 158.124 6.24324 158.124 7.30833V18.8997C158.124 19.9421 157.977 20.9052 157.682 21.789C157.387 22.6728 156.855 23.432 156.084 24.0665L151.699 27.7377ZM157.784 18.8997V7.30833C157.784 6.2659 157.625 5.32545 157.308 4.48698C157.014 3.62584 156.47 2.88934 155.677 2.27748C154.906 1.66562 153.83 1.18973 152.447 0.849807C151.088 0.509885 149.354 0.339924 147.246 0.339924C145.139 0.339924 143.394 0.509885 142.012 0.849807C140.629 1.18973 139.542 1.66562 138.748 2.27748C137.978 2.88934 137.434 3.62584 137.117 4.48698C136.822 5.32545 136.675 6.2659 136.675 7.30833V18.8997C136.675 19.9421 136.822 20.8939 137.117 21.755C137.434 22.5935 137.978 23.3187 138.748 23.9305C139.542 24.5197 140.629 24.9843 142.012 25.3242C143.394 25.6641 145.139 25.8341 147.246 25.8341C149.354 25.8341 151.088 25.6641 152.447 25.3242C153.83 24.9843 154.906 24.5197 155.677 23.9305C156.47 23.3187 157.014 22.5935 157.308 21.755C157.625 20.8939 157.784 19.9421 157.784 18.8997ZM154.079 18.1179C154.079 19.4776 153.592 20.588 152.617 21.4491C151.643 22.2876 149.83 22.7068 147.178 22.7068C144.527 22.7068 142.725 22.2876 141.774 21.4491C140.822 20.588 140.346 19.4776 140.346 18.1179V8.09015C140.346 6.73046 140.822 5.63138 141.774 4.79291C142.725 3.93177 144.527 3.5012 147.178 3.5012C149.83 3.5012 151.643 3.93177 152.617 4.79291C153.592 5.63138 154.079 6.73046 154.079 8.09015V18.1179ZM140.686 18.1179C140.686 19.3869 141.139 20.418 142.046 21.2112C142.952 21.9816 144.663 22.3669 147.178 22.3669C149.694 22.3669 151.416 21.9816 152.345 21.2112C153.274 20.418 153.739 19.3869 153.739 18.1179V8.09015C153.739 6.82111 153.274 5.80134 152.345 5.03085C151.416 4.2377 149.694 3.84112 147.178 3.84112C144.663 3.84112 142.952 4.2377 142.046 5.03085C141.139 5.80134 140.686 6.82111 140.686 8.09015V18.1179ZM144.391 17.676V8.53205C144.391 8.10148 144.561 7.7389 144.901 7.4443C145.241 7.12704 146.023 6.96841 147.246 6.96841C148.47 6.96841 149.252 7.12704 149.592 7.4443C149.932 7.7389 150.102 8.10148 150.102 8.53205V17.676C150.102 18.1292 149.932 18.5144 149.592 18.8317C149.252 19.1263 148.47 19.2736 147.246 19.2736C146.023 19.2736 145.241 19.1263 144.901 18.8317C144.561 18.5144 144.391 18.1292 144.391 17.676ZM144.731 17.676C144.731 17.9026 144.776 18.1065 144.867 18.2878C144.958 18.4465 145.128 18.5824 145.377 18.6957V12.2372C145.377 12.0106 145.332 11.818 145.241 11.6593C145.15 11.478 144.98 11.3421 144.731 11.2514V17.676Z" fill="#FF4638"/>
<path fill-rule="evenodd" clip-rule="evenodd" d="M157.784 18.8997V7.30833C157.784 6.2659 157.625 5.32545 157.308 4.48698C157.014 3.62584 156.47 2.88934 155.677 2.27748C154.906 1.66562 153.83 1.18973 152.447 0.849807C151.088 0.509885 149.354 0.339924 147.246 0.339924C145.139 0.339924 143.394 0.509885 142.012 0.849807C140.629 1.18973 139.542 1.66562 138.748 2.27748C137.978 2.88934 137.434 3.62584 137.117 4.48698C136.822 5.32545 136.675 6.2659 136.675 7.30833V18.8997C136.675 19.9421 136.822 20.8939 137.117 21.755C137.434 22.5935 137.978 23.3187 138.748 23.9305C139.542 24.5197 140.629 24.9843 142.012 25.3242C143.394 25.6641 145.139 25.8341 147.246 25.8341C149.354 25.8341 151.088 25.6641 152.447 25.3242C153.83 24.9843 154.906 24.5197 155.677 23.9305C156.47 23.3187 157.014 22.5935 157.308 21.755C157.625 20.8939 157.784 19.9421 157.784 18.8997ZM152.617 21.4491C153.592 20.588 154.079 19.4776 154.079 18.1179V8.09015C154.079 6.73046 153.592 5.63138 152.617 4.79291C151.643 3.93177 149.83 3.5012 147.178 3.5012C144.527 3.5012 142.725 3.93177 141.774 4.79291C140.822 5.63138 140.346 6.73046 140.346 8.09015V18.1179C140.346 19.4776 140.822 20.588 141.774 21.4491C142.725 22.2876 144.527 22.7068 147.178 22.7068C149.83 22.7068 151.643 22.2876 152.617 21.4491Z" fill="white"/>
<path fill-rule="evenodd" clip-rule="evenodd" d="M140.686 18.1179C140.686 19.3869 141.139 20.418 142.046 21.2112C142.952 21.9816 144.663 22.3669 147.178 22.3669C149.694 22.3669 151.416 21.9816 152.345 21.2112C153.274 20.418 153.739 19.3869 153.739 18.1179V8.09015C153.739 6.82111 153.274 5.80134 152.345 5.03085C151.416 4.2377 149.694 3.84112 147.178 3.84112C144.663 3.84112 142.952 4.2377 142.046 5.03085C141.139 5.80134 140.686 6.82111 140.686 8.09015V18.1179ZM144.391 8.53205V17.676C144.391 18.1292 144.561 18.5144 144.901 18.8317C145.241 19.1263 146.023 19.2736 147.246 19.2736C148.47 19.2736 149.252 19.1263 149.592 18.8317C149.932 18.5144 150.102 18.1292 150.102 17.676V8.53205C150.102 8.10148 149.932 7.7389 149.592 7.4443C149.252 7.12704 148.47 6.96841 147.246 6.96841C146.023 6.96841 145.241 7.12704 144.901 7.4443C144.561 7.7389 144.391 8.10148 144.391 8.53205Z" fill="white"/>
<path d="M144.731 17.676C144.731 17.9026 144.776 18.1065 144.867 18.2878C144.958 18.4465 145.128 18.5824 145.377 18.6957V12.2372C145.377 12.0106 145.332 11.818 145.241 11.6593C145.15 11.478 144.98 11.3421 144.731 11.2514V17.676Z" fill="white"/>
<path d="M123.858 29.3688H109.377C108.833 29.3688 108.436 29.2442 108.187 28.9949C107.938 28.7456 107.813 28.349 107.813 27.8052V23.7601C107.813 23.4655 107.847 23.2162 107.915 23.0123C108.006 22.8083 108.13 22.6383 108.289 22.5024L112.402 19.0352V11.4549H109.377C108.833 11.4549 108.436 11.3303 108.187 11.081C107.938 10.8317 107.813 10.4351 107.813 9.89126V5.7782C107.813 5.4836 107.847 5.23432 107.915 5.03037C108.006 4.82641 108.13 4.65645 108.289 4.52048L112.674 0.81533C112.787 0.724684 112.935 0.656699 113.116 0.611375C113.32 0.543391 113.535 0.509399 113.762 0.509399H128.243C128.786 0.509399 129.183 0.634037 129.432 0.883313C129.682 1.13259 129.806 1.52917 129.806 2.07304V6.1861C129.806 6.4807 129.761 6.72998 129.67 6.93393C129.602 7.13789 129.489 7.30785 129.33 7.44382L125.285 10.843V18.4913H128.243C128.786 18.4913 129.183 18.6159 129.432 18.8652C129.682 19.1145 129.806 19.5111 129.806 20.0549V24.1C129.806 24.3946 129.761 24.6439 129.67 24.8478C129.602 25.0518 129.489 25.2218 129.33 25.3577L124.911 29.0289C124.821 29.1195 124.673 29.1988 124.469 29.2668C124.288 29.3348 124.084 29.3688 123.858 29.3688ZM113.762 25.3237H128.243C128.673 25.3237 128.979 25.2331 129.16 25.0518C129.364 24.8478 129.466 24.5306 129.466 24.1V20.0549C129.466 19.6244 129.364 19.3184 129.16 19.1371C128.979 18.9332 128.673 18.8312 128.243 18.8312H124.945V7.40982H128.243C128.673 7.40982 128.979 7.31918 129.16 7.13789C129.364 6.93393 129.466 6.61667 129.466 6.1861V2.07304C129.466 1.64247 129.364 1.33654 129.16 1.15525C128.979 0.951298 128.673 0.849321 128.243 0.849321H113.762C113.331 0.849321 113.014 0.951298 112.81 1.15525C112.629 1.33654 112.538 1.64247 112.538 2.07304V6.1861C112.538 6.61667 112.629 6.93393 112.81 7.13789C113.014 7.31918 113.331 7.40982 113.762 7.40982H117.127V18.8312H113.762C113.331 18.8312 113.014 18.9332 112.81 19.1371C112.629 19.3184 112.538 19.6244 112.538 20.0549V24.1C112.538 24.5306 112.629 24.8478 112.81 25.0518C113.014 25.2331 113.331 25.3237 113.762 25.3237ZM126.407 22.2644H115.597V21.9245H120.866V4.24855H115.597V3.90862H126.407V4.24855H121.206V21.9245H126.407V22.2644Z" fill="#FF4638"/>
<path fill-rule="evenodd" clip-rule="evenodd" d="M113.762 25.3237H128.243C128.673 25.3237 128.979 25.2331 129.16 25.0518C129.364 24.8478 129.466 24.5306 129.466 24.1V20.0549C129.466 19.6244 129.364 19.3184 129.16 19.1371C128.979 18.9332 128.673 18.8312 128.243 18.8312H124.945V7.40982H128.243C128.673 7.40982 128.979 7.31918 129.16 7.13789C129.364 6.93393 129.466 6.61667 129.466 6.1861V2.07304C129.466 1.64247 129.364 1.33654 129.16 1.15525C128.979 0.951298 128.673 0.849321 128.243 0.849321H113.762C113.331 0.849321 113.014 0.951298 112.81 1.15525C112.629 1.33654 112.538 1.64247 112.538 2.07304V6.1861C112.538 6.61667 112.629 6.93393 112.81 7.13789C113.014 7.31918 113.331 7.40982 113.762 7.40982H117.127V18.8312H113.762C113.331 18.8312 113.014 18.9332 112.81 19.1371C112.629 19.3184 112.538 19.6244 112.538 20.0549V24.1C112.538 24.5306 112.629 24.8478 112.81 25.0518C113.014 25.2331 113.331 25.3237 113.762 25.3237ZM115.597 22.2644H126.407V21.9245H121.206V4.24855H126.407V3.90862H115.597V4.24855H120.866V21.9245H115.597V22.2644Z" fill="white"/>
<path d="M88.5898 4.18056L101.099 18.2533V3.90862H101.439V22.2644H101.099V18.7632L88.2499 4.35052C88.2272 4.32786 88.1932 4.3052 88.1479 4.28254C88.1253 4.25988 88.1026 4.24855 88.0799 4.24855C88.0573 4.24855 88.0346 4.25988 88.012 4.28254C88.012 4.3052 88.012 4.32786 88.012 4.35052V22.2644H87.672V4.28254C87.672 4.14657 87.7174 4.04459 87.808 3.97661C87.8986 3.90862 87.9893 3.87463 88.0799 3.87463C88.1706 3.87463 88.2499 3.89729 88.3179 3.94262C88.3859 3.98794 88.4765 4.06725 88.5898 4.18056ZM90.4254 25.3237C90.856 25.3237 91.1619 25.2331 91.3432 25.0518C91.5471 24.8478 91.6491 24.5306 91.6491 24.1V12.8826L97.4618 19.919V24.1C97.4618 24.5306 97.5524 24.8478 97.7337 25.0518C97.9377 25.2331 98.2549 25.3237 98.6855 25.3237H103.784C104.215 25.3237 104.521 25.2331 104.702 25.0518C104.906 24.8478 105.008 24.5306 105.008 24.1V2.07304C105.008 1.64247 104.906 1.33654 104.702 1.15525C104.521 0.951298 104.215 0.849321 103.784 0.849321H98.6855C98.2549 0.849321 97.9377 0.951298 97.7337 1.15525C97.5524 1.33654 97.4618 1.64247 97.4618 2.07304V9.31339L90.8673 1.76711C90.5727 1.42719 90.2668 1.18924 89.9495 1.05327C89.6549 0.917306 89.2923 0.849321 88.8618 0.849321H85.3266C84.896 0.849321 84.5787 0.951298 84.3748 1.15525C84.1935 1.33654 84.1028 1.64247 84.1028 2.07304V24.1C84.1028 24.5306 84.1935 24.8478 84.3748 25.0518C84.5787 25.2331 84.896 25.3237 85.3266 25.3237H90.4254ZM91.5132 25.3577L87.0942 29.0289C87.0035 29.1195 86.8562 29.1988 86.6523 29.2668C86.471 29.3348 86.267 29.3688 86.0404 29.3688H80.9416C80.3977 29.3688 80.0011 29.2442 79.7518 28.9949C79.5026 28.7456 79.3779 28.349 79.3779 27.8052V5.7782C79.3779 5.4836 79.4119 5.23432 79.4799 5.03037C79.5706 4.82641 79.6952 4.65645 79.8538 4.52048L84.2388 0.81533C84.3521 0.724684 84.4994 0.656699 84.6807 0.611375C84.8847 0.543391 85.1 0.509399 85.3266 0.509399H88.8618C89.3603 0.509399 89.7796 0.588714 90.1195 0.747344C90.4594 0.905975 90.7993 1.16658 91.1392 1.52917L93.4847 4.24855L97.5978 0.81533C97.7111 0.724684 97.8584 0.656699 98.0397 0.611375C98.2436 0.543391 98.4589 0.509399 98.6855 0.509399H103.784C104.328 0.509399 104.725 0.634037 104.974 0.883313C105.223 1.13259 105.348 1.52917 105.348 2.07304V24.1C105.348 24.3946 105.303 24.6439 105.212 24.8478C105.144 25.0518 105.031 25.2218 104.872 25.3577L100.453 29.0289C100.362 29.1195 100.215 29.1988 100.011 29.2668C99.8299 29.3348 99.626 29.3688 99.3994 29.3688H94.3005C93.7566 29.3688 93.3601 29.2442 93.1108 28.9949C92.8615 28.7456 92.7369 28.349 92.7369 27.8052V23.7601L91.989 22.8423V24.1C91.989 24.3946 91.9437 24.6439 91.8531 24.8478C91.7851 25.0518 91.6718 25.2218 91.5132 25.3577Z" fill="#FF4638"/>
<path fill-rule="evenodd" clip-rule="evenodd" d="M90.4254 25.3237C90.856 25.3237 91.1619 25.2331 91.3432 25.0518C91.5471 24.8478 91.6491 24.5306 91.6491 24.1V12.8826L97.4618 19.919V24.1C97.4618 24.5306 97.5524 24.8478 97.7337 25.0518C97.9377 25.2331 98.2549 25.3237 98.6855 25.3237H103.784C104.215 25.3237 104.521 25.2331 104.702 25.0518C104.906 24.8478 105.008 24.5306 105.008 24.1V2.07304C105.008 1.64247 104.906 1.33654 104.702 1.15525C104.521 0.951298 104.215 0.849321 103.784 0.849321H98.6855C98.2549 0.849321 97.9377 0.951298 97.7337 1.15525C97.5524 1.33654 97.4618 1.64247 97.4618 2.07304V9.31339L90.8673 1.76711C90.5727 1.42719 90.2668 1.18924 89.9495 1.05327C89.6549 0.917306 89.2923 0.849321 88.8618 0.849321H85.3266C84.896 0.849321 84.5787 0.951298 84.3748 1.15525C84.1935 1.33654 84.1028 1.64247 84.1028 2.07304V24.1C84.1028 24.5306 84.1935 24.8478 84.3748 25.0518C84.5787 25.2331 84.896 25.3237 85.3266 25.3237H90.4254ZM101.099 18.2533L88.5898 4.18056C88.4765 4.06725 88.3859 3.98794 88.3179 3.94262C88.2499 3.89729 88.1706 3.87463 88.0799 3.87463C87.9893 3.87463 87.8986 3.90862 87.808 3.97661C87.7174 4.04459 87.672 4.14657 87.672 4.28254V22.2644H88.012V4.35052V4.28254C88.0346 4.25988 88.0573 4.24855 88.0799 4.24855C88.1026 4.24855 88.1253 4.25988 88.1479 4.28254C88.1932 4.3052 88.2272 4.32786 88.2499 4.35052L101.099 18.7632V22.2644H101.439V3.90862H101.099V18.2533Z" fill="white"/>
<path d="M70.9115 29.3688H56.4308C55.887 29.3688 55.4904 29.2442 55.2411 28.9949C54.9918 28.7456 54.8672 28.349 54.8672 27.8052V23.7601C54.8672 23.4655 54.9012 23.2162 54.9692 23.0123C55.0598 22.8083 55.1845 22.6383 55.3431 22.5024L59.4561 19.0352V11.4549H56.4308C55.887 11.4549 55.4904 11.3303 55.2411 11.081C54.9918 10.8317 54.8672 10.4351 54.8672 9.89126V5.7782C54.8672 5.4836 54.9012 5.23432 54.9692 5.03037C55.0598 4.82641 55.1845 4.65645 55.3431 4.52048L59.7281 0.81533C59.8414 0.724684 59.9887 0.656699 60.17 0.611375C60.3739 0.543391 60.5892 0.509399 60.8158 0.509399H75.2965C75.8404 0.509399 76.237 0.634037 76.4862 0.883313C76.7355 1.13259 76.8602 1.52917 76.8602 2.07304V6.1861C76.8602 6.4807 76.8148 6.72998 76.7242 6.93393C76.6562 7.13789 76.5429 7.30785 76.3843 7.44382L72.3392 10.843V18.4913H75.2965C75.8404 18.4913 76.237 18.6159 76.4862 18.8652C76.7355 19.1145 76.8602 19.5111 76.8602 20.0549V24.1C76.8602 24.3946 76.8148 24.6439 76.7242 24.8478C76.6562 25.0518 76.5429 25.2218 76.3843 25.3577L71.9653 29.0289C71.8746 29.1195 71.7273 29.1988 71.5234 29.2668C71.3421 29.3348 71.1381 29.3688 70.9115 29.3688ZM60.8158 25.3237H75.2965C75.7271 25.3237 76.033 25.2331 76.2143 25.0518C76.4183 24.8478 76.5202 24.5306 76.5202 24.1V20.0549C76.5202 19.6244 76.4183 19.3184 76.2143 19.1371C76.033 18.9332 75.7271 18.8312 75.2965 18.8312H71.9993V7.40982H75.2965C75.7271 7.40982 76.033 7.31918 76.2143 7.13789C76.4183 6.93393 76.5202 6.61667 76.5202 6.1861V2.07304C76.5202 1.64247 76.4183 1.33654 76.2143 1.15525C76.033 0.951298 75.7271 0.849321 75.2965 0.849321H60.8158C60.3853 0.849321 60.068 0.951298 59.864 1.15525C59.6828 1.33654 59.5921 1.64247 59.5921 2.07304V6.1861C59.5921 6.61667 59.6828 6.93393 59.864 7.13789C60.068 7.31918 60.3853 7.40982 60.8158 7.40982H64.1811V18.8312H60.8158C60.3853 18.8312 60.068 18.9332 59.864 19.1371C59.6828 19.3184 59.5921 19.6244 59.5921 20.0549V24.1C59.5921 24.5306 59.6828 24.8478 59.864 25.0518C60.068 25.2331 60.3853 25.3237 60.8158 25.3237ZM73.4609 22.2644H62.6514V21.9245H67.9202V4.24855H62.6514V3.90862H73.4609V4.24855H68.2601V21.9245H73.4609V22.2644Z" fill="#FF4638"/>
<path fill-rule="evenodd" clip-rule="evenodd" d="M60.8158 25.3237H75.2965C75.7271 25.3237 76.033 25.2331 76.2143 25.0518C76.4183 24.8478 76.5202 24.5306 76.5202 24.1V20.0549C76.5202 19.6244 76.4183 19.3184 76.2143 19.1371C76.033 18.9332 75.7271 18.8312 75.2965 18.8312H71.9993V7.40982H75.2965C75.7271 7.40982 76.033 7.31918 76.2143 7.13789C76.4183 6.93393 76.5202 6.61667 76.5202 6.1861V2.07304C76.5202 1.64247 76.4183 1.33654 76.2143 1.15525C76.033 0.951298 75.7271 0.849321 75.2965 0.849321H60.8158C60.3853 0.849321 60.068 0.951298 59.864 1.15525C59.6828 1.33654 59.5921 1.64247 59.5921 2.07304V6.1861C59.5921 6.61667 59.6828 6.93393 59.864 7.13789C60.068 7.31918 60.3853 7.40982 60.8158 7.40982H64.1811V18.8312H60.8158C60.3853 18.8312 60.068 18.9332 59.864 19.1371C59.6828 19.3184 59.5921 19.6244 59.5921 20.0549V24.1C59.5921 24.5306 59.6828 24.8478 59.864 25.0518C60.068 25.2331 60.3853 25.3237 60.8158 25.3237ZM62.6514 22.2644H73.4609V21.9245H68.2601V4.24855H73.4609V3.90862H62.6514V4.24855H67.9202V21.9245H62.6514V22.2644Z" fill="white"/>
<path d="M35.6545 29.3688H30.3857C29.8418 29.3688 29.4452 29.2442 29.1959 28.9949C28.9467 28.7456 28.822 28.349 28.822 27.8052V5.7782C28.822 5.4836 28.856 5.23432 28.924 5.03037C29.0146 4.82641 29.1393 4.65645 29.2979 4.52048L33.6829 0.81533C33.7962 0.724684 33.9435 0.656699 34.1248 0.611375C34.3288 0.543391 34.544 0.509399 34.7707 0.509399H45.1723C46.7813 0.509399 48.1296 0.67936 49.2174 1.01928C50.3051 1.3592 51.1663 1.8351 51.8008 2.44696C52.4353 3.05882 52.8772 3.79531 53.1265 4.65645C53.3984 5.51759 53.5344 6.45804 53.5344 7.47781V11.8288C53.5344 12.9166 53.3757 13.9137 53.0585 14.8201C52.7639 15.7039 52.2427 16.4631 51.4948 17.0976L47.0759 20.7688C46.5093 21.2447 45.7728 21.6412 44.8664 21.9585C43.9826 22.2531 42.8948 22.4231 41.6031 22.4684V24.1C41.6031 24.3946 41.5578 24.6439 41.4671 24.8478C41.3992 25.0518 41.2858 25.2218 41.1272 25.3577L36.7082 29.0289C36.6176 29.1195 36.4703 29.1988 36.2663 29.2668C36.085 29.3348 35.8811 29.3688 35.6545 29.3688ZM40.0395 25.3237C40.47 25.3237 40.776 25.2331 40.9573 25.0518C41.1612 24.8478 41.2632 24.5306 41.2632 24.1V18.4573H45.1723C48.2543 18.4573 50.3618 17.8454 51.4948 16.6217C52.6279 15.398 53.1945 13.8004 53.1945 11.8288V7.47781C53.1945 5.50626 52.6279 3.90862 51.4948 2.6849C50.3618 1.46118 48.2543 0.849321 45.1723 0.849321H34.7707C34.3401 0.849321 34.0228 0.951298 33.8189 1.15525C33.6376 1.33654 33.5469 1.64247 33.5469 2.07304V24.1C33.5469 24.5306 33.6376 24.8478 33.8189 25.0518C34.0228 25.2331 34.3401 25.3237 34.7707 25.3237H40.0395ZM44.6964 15.568H37.694V22.2644H37.3541V3.90862H44.6964C45.7615 3.90862 46.6226 4.03326 47.2798 4.28254C47.9596 4.50915 48.4809 4.82641 48.8434 5.23432C49.206 5.64223 49.4553 6.12945 49.5913 6.69599C49.7272 7.26252 49.7952 7.87438 49.7952 8.53157V11.047C49.7952 11.7042 49.7272 12.316 49.5913 12.8826C49.4553 13.4264 49.206 13.9023 48.8434 14.3102C48.4809 14.6955 47.9596 15.0014 47.2798 15.228C46.6226 15.4547 45.7615 15.568 44.6964 15.568ZM37.694 15.228H44.6964C45.6935 15.228 46.498 15.1261 47.1098 14.9221C47.7444 14.7182 48.2316 14.4349 48.5715 14.0723C48.9114 13.6871 49.138 13.2452 49.2514 12.7466C49.3873 12.2254 49.4553 11.6589 49.4553 11.047V8.53157C49.4553 7.91971 49.3873 7.35317 49.2514 6.83195C49.138 6.31074 48.9114 5.85751 48.5715 5.47226C48.2316 5.08702 47.7444 4.79242 47.1098 4.58847C46.498 4.36185 45.6935 4.24855 44.6964 4.24855H37.694V15.228ZM41.1952 7.20587H44.2545C44.9117 7.20587 45.3422 7.37583 45.5462 7.71575C45.7502 8.05568 45.8521 8.44092 45.8521 8.87149V10.6731C45.8521 11.1036 45.7502 11.4889 45.5462 11.8288C45.3422 12.1687 44.9117 12.3387 44.2545 12.3387H41.1952V7.20587Z" fill="#FF4638"/>
<path fill-rule="evenodd" clip-rule="evenodd" d="M40.0395 25.3237C40.47 25.3237 40.776 25.2331 40.9573 25.0518C41.1612 24.8478 41.2632 24.5306 41.2632 24.1V18.4573H45.1723C48.2543 18.4573 50.3618 17.8454 51.4948 16.6217C52.6279 15.398 53.1945 13.8004 53.1945 11.8288V7.47781C53.1945 5.50626 52.6279 3.90862 51.4948 2.6849C50.3618 1.46118 48.2543 0.849321 45.1723 0.849321H34.7707C34.3401 0.849321 34.0228 0.951298 33.8189 1.15525C33.6376 1.33654 33.5469 1.64247 33.5469 2.07304V24.1C33.5469 24.5306 33.6376 24.8478 33.8189 25.0518C34.0228 25.2331 34.3401 25.3237 34.7707 25.3237H40.0395ZM37.694 15.568H44.6964C45.7615 15.568 46.6226 15.4547 47.2798 15.228C47.9596 15.0014 48.4809 14.6955 48.8434 14.3102C49.206 13.9023 49.4553 13.4264 49.5913 12.8826C49.7272 12.316 49.7952 11.7042 49.7952 11.047V8.53157C49.7952 7.87438 49.7272 7.26252 49.5913 6.69599C49.4553 6.12945 49.206 5.64223 48.8434 5.23432C48.4809 4.82641 47.9596 4.50915 47.2798 4.28254C46.6226 4.03326 45.7615 3.90862 44.6964 3.90862H37.3541V22.2644H37.694V15.568Z" fill="white"/>
<path fill-rule="evenodd" clip-rule="evenodd" d="M37.694 15.228H44.6964C45.6935 15.228 46.498 15.1261 47.1098 14.9221C47.7444 14.7182 48.2316 14.4349 48.5715 14.0723C48.9114 13.6871 49.138 13.2452 49.2514 12.7466C49.3873 12.2254 49.4553 11.6589 49.4553 11.047V8.53157C49.4553 7.91971 49.3873 7.35317 49.2514 6.83195C49.138 6.31074 48.9114 5.85751 48.5715 5.47226C48.2316 5.08702 47.7444 4.79242 47.1098 4.58847C46.498 4.36185 45.6935 4.24855 44.6964 4.24855H37.694V15.228ZM44.2545 7.20587H41.1952V12.3387H44.2545C44.9117 12.3387 45.3422 12.1687 45.5462 11.8288C45.7502 11.4889 45.8521 11.1036 45.8521 10.6731V8.87149C45.8521 8.44092 45.7502 8.05568 45.5462 7.71575C45.3422 7.37583 44.9117 7.20587 44.2545 7.20587Z" fill="white"/>
<path d="M19.7495 27.7377C18.9563 28.4175 17.8459 28.9387 16.4183 29.3013C14.9906 29.6866 13.155 29.8792 10.9115 29.8792C8.69068 29.8792 6.86643 29.6412 5.43876 29.1653C4.03375 28.7121 2.92333 28.1002 2.10752 27.3298C1.31437 26.5593 0.75916 25.6755 0.441899 24.6784C0.1473 23.6813 0 22.6502 0 21.5851V11.0135C0 9.97106 0.1473 9.00794 0.441899 8.12414C0.736498 7.21769 1.26904 6.4472 2.03953 5.81267L6.45853 2.14151C7.25168 1.46167 8.35076 0.940453 9.75577 0.577869C11.1834 0.192623 13.0304 0 15.2965 0C17.5173 0 19.3303 0.181292 20.7353 0.543877C22.1629 0.90646 23.2734 1.41634 24.0665 2.07353C24.8823 2.70805 25.4375 3.47854 25.7321 4.385C26.0267 5.2688 26.174 6.24324 26.174 7.30833V18.8997C26.174 19.9421 26.0267 20.9052 25.7321 21.789C25.4375 22.6728 24.905 23.432 24.1345 24.0665L19.7495 27.7377ZM25.8341 18.8997V7.30833C25.8341 6.2659 25.6755 5.32545 25.3582 4.48698C25.0636 3.62584 24.5197 2.88934 23.7266 2.27748C22.9561 1.66562 21.8797 1.18973 20.4973 0.849807C19.1376 0.509885 17.404 0.339924 15.2965 0.339924C13.189 0.339924 11.4441 0.509885 10.0617 0.849807C8.67935 1.18973 7.5916 1.66562 6.79845 2.27748C6.02796 2.88934 5.48408 3.62584 5.16682 4.48698C4.87222 5.32545 4.72492 6.2659 4.72492 7.30833V18.8997C4.72492 19.9421 4.87222 20.8939 5.16682 21.755C5.48408 22.5935 6.02796 23.3187 6.79845 23.9305C7.5916 24.5197 8.67935 24.9843 10.0617 25.3242C11.4441 25.6641 13.189 25.8341 15.2965 25.8341C17.404 25.8341 19.1376 25.6641 20.4973 25.3242C21.8797 24.9843 22.9561 24.5197 23.7266 23.9305C24.5197 23.3187 25.0636 22.5935 25.3582 21.755C25.6755 20.8939 25.8341 19.9421 25.8341 18.8997ZM22.1289 18.1179C22.1289 19.4776 21.6417 20.588 20.6673 21.4491C19.6928 22.2876 17.8799 22.7068 15.2285 22.7068C12.5771 22.7068 10.7755 22.2876 9.82376 21.4491C8.87197 20.588 8.39608 19.4776 8.39608 18.1179V8.09015C8.39608 6.73046 8.87197 5.63138 9.82376 4.79291C10.7755 3.93177 12.5771 3.5012 15.2285 3.5012C17.8799 3.5012 19.6928 3.93177 20.6673 4.79291C21.6417 5.63138 22.1289 6.73046 22.1289 8.09015V18.1179ZM8.736 18.1179C8.736 19.3869 9.18923 20.418 10.0957 21.2112C11.0022 21.9816 12.7131 22.3669 15.2285 22.3669C17.7439 22.3669 19.4662 21.9816 20.3953 21.2112C21.3245 20.418 21.789 19.3869 21.789 18.1179V8.09015C21.789 6.82111 21.3245 5.80134 20.3953 5.03085C19.4662 4.2377 17.7439 3.84112 15.2285 3.84112C12.7131 3.84112 11.0022 4.2377 10.0957 5.03085C9.18923 5.80134 8.736 6.82111 8.736 8.09015V18.1179ZM12.4412 17.676V8.53205C12.4412 8.10148 12.6111 7.7389 12.951 7.4443C13.291 7.12704 14.0728 6.96841 15.2965 6.96841C16.5202 6.96841 17.302 7.12704 17.642 7.4443C17.9819 7.7389 18.1519 8.10148 18.1519 8.53205V17.676C18.1519 18.1292 17.9819 18.5144 17.642 18.8317C17.302 19.1263 16.5202 19.2736 15.2965 19.2736C14.0728 19.2736 13.291 19.1263 12.951 18.8317C12.6111 18.5144 12.4412 18.1292 12.4412 17.676ZM12.7811 17.676C12.7811 17.9026 12.8264 18.1065 12.9171 18.2878C13.0077 18.4465 13.1777 18.5824 13.4269 18.6957V12.2372C13.4269 12.0106 13.3816 11.818 13.291 11.6593C13.2003 11.478 13.0304 11.3421 12.7811 11.2514V17.676Z" fill="#FF4638"/>
<path fill-rule="evenodd" clip-rule="evenodd" d="M25.8341 18.8997V7.30833C25.8341 6.2659 25.6755 5.32545 25.3582 4.48698C25.0636 3.62584 24.5197 2.88934 23.7266 2.27748C22.9561 1.66562 21.8797 1.18973 20.4973 0.849807C19.1376 0.509885 17.404 0.339924 15.2965 0.339924C13.189 0.339924 11.4441 0.509885 10.0617 0.849807C8.67935 1.18973 7.5916 1.66562 6.79845 2.27748C6.02796 2.88934 5.48408 3.62584 5.16682 4.48698C4.87222 5.32545 4.72492 6.2659 4.72492 7.30833V18.8997C4.72492 19.9421 4.87222 20.8939 5.16682 21.755C5.48408 22.5935 6.02796 23.3187 6.79845 23.9305C7.5916 24.5197 8.67935 24.9843 10.0617 25.3242C11.4441 25.6641 13.189 25.8341 15.2965 25.8341C17.404 25.8341 19.1376 25.6641 20.4973 25.3242C21.8797 24.9843 22.9561 24.5197 23.7266 23.9305C24.5197 23.3187 25.0636 22.5935 25.3582 21.755C25.6755 20.8939 25.8341 19.9421 25.8341 18.8997ZM20.6673 21.4491C21.6417 20.588 22.1289 19.4776 22.1289 18.1179V8.09015C22.1289 6.73046 21.6417 5.63138 20.6673 4.79291C19.6928 3.93177 17.8799 3.5012 15.2285 3.5012C12.5771 3.5012 10.7755 3.93177 9.82376 4.79291C8.87197 5.63138 8.39608 6.73046 8.39608 8.09015V18.1179C8.39608 19.4776 8.87197 20.588 9.82376 21.4491C10.7755 22.2876 12.5771 22.7068 15.2285 22.7068C17.8799 22.7068 19.6928 22.2876 20.6673 21.4491Z" fill="white"/>
<path fill-rule="evenodd" clip-rule="evenodd" d="M8.736 18.1179C8.736 19.3869 9.18923 20.418 10.0957 21.2112C11.0022 21.9816 12.7131 22.3669 15.2285 22.3669C17.7439 22.3669 19.4662 21.9816 20.3953 21.2112C21.3245 20.418 21.789 19.3869 21.789 18.1179V8.09015C21.789 6.82111 21.3245 5.80134 20.3953 5.03085C19.4662 4.2377 17.7439 3.84112 15.2285 3.84112C12.7131 3.84112 11.0022 4.2377 10.0957 5.03085C9.18923 5.80134 8.736 6.82111 8.736 8.09015V18.1179ZM12.4412 8.53205V17.676C12.4412 18.1292 12.6111 18.5144 12.951 18.8317C13.291 19.1263 14.0728 19.2736 15.2965 19.2736C16.5202 19.2736 17.302 19.1263 17.642 18.8317C17.9819 18.5144 18.1519 18.1292 18.1519 17.676V8.53205C18.1519 8.10148 17.9819 7.7389 17.642 7.4443C17.302 7.12704 16.5202 6.96841 15.2965 6.96841C14.0728 6.96841 13.291 7.12704 12.951 7.4443C12.6111 7.7389 12.4412 8.10148 12.4412 8.53205Z" fill="white"/>
<path d="M12.7811 17.676C12.7811 17.9026 12.8264 18.1065 12.9171 18.2878C13.0077 18.4465 13.1777 18.5824 13.4269 18.6957V12.2372C13.4269 12.0106 13.3816 11.818 13.291 11.6593C13.2003 11.478 13.0304 11.3421 12.7811 11.2514V17.676Z" fill="white"/>
</svg>
