<svg width="234" height="33" viewBox="0 0 234 33" fill="none" xmlns="http://www.w3.org/2000/svg">
<path d="M216.656 32.3924C214.322 32.3924 212.394 32.1836 210.871 31.7659C209.347 31.3483 208.144 30.7955 207.259 30.1076C206.375 29.4197 205.761 28.6213 205.417 27.7123C205.073 26.8033 204.901 25.8574 204.901 24.8747V22.0371C204.901 20.8333 205.073 19.8138 205.417 18.9785C205.785 18.1432 206.264 17.4799 206.854 16.9885L207.996 16.0304C207.505 15.6127 207.149 15.0968 206.928 14.4826C206.731 13.8438 206.633 13.1314 206.633 12.3452V10.2078C206.633 9.34797 206.768 8.56181 207.038 7.84935C207.308 7.11232 207.763 6.48585 208.402 5.96993L213.155 1.95313C213.892 1.33894 214.924 0.859868 216.251 0.515922C217.602 0.171974 219.334 0 221.447 0C223.412 0 225.034 0.147406 226.311 0.442218C227.614 0.73703 228.633 1.15468 229.37 1.69516C230.132 2.23565 230.66 2.88669 230.955 3.64829C231.25 4.40989 231.397 5.25747 231.397 6.19104V8.32842C231.397 9.13915 231.286 9.86389 231.065 10.5027C230.844 11.1168 230.488 11.6328 229.997 12.0504L229.812 12.1978C230.77 12.5663 231.557 13.2297 232.171 14.1878C232.81 15.1214 233.129 16.3989 233.129 18.0203V21.5949C233.129 22.5039 232.982 23.3392 232.687 24.1008C232.392 24.8624 231.901 25.538 231.213 26.1276L226.459 30.1076C225.624 30.8201 224.407 31.3728 222.811 31.7659C221.238 32.1836 219.187 32.3924 216.656 32.3924ZM232.76 18.0203C232.76 16.3006 232.38 14.974 231.618 14.0404C230.881 13.1068 229.96 12.5295 228.854 12.3084C229.665 11.9644 230.23 11.4485 230.549 10.7606C230.869 10.0727 231.028 9.26199 231.028 8.32842V6.19104C231.028 5.28204 230.869 4.47131 230.549 3.75885C230.255 3.04638 229.739 2.44448 229.002 1.95313C228.289 1.43721 227.306 1.04412 226.053 0.77388C224.825 0.503637 223.29 0.368516 221.447 0.368516C219.604 0.368516 218.057 0.503637 216.804 0.77388C215.551 1.04412 214.556 1.43721 213.819 1.95313C213.082 2.44448 212.554 3.04638 212.234 3.75885C211.915 4.47131 211.755 5.28204 211.755 6.19104V8.32842C211.755 9.26199 211.915 10.0727 212.234 10.7606C212.554 11.4485 213.119 11.9644 213.929 12.3084C212.824 12.5295 211.89 13.1068 211.129 14.0404C210.392 14.974 210.023 16.3006 210.023 18.0203V21.5949C210.023 22.5531 210.195 23.4252 210.539 24.2114C210.908 24.9975 211.522 25.6731 212.382 26.2382C213.241 26.8033 214.408 27.2332 215.882 27.528C217.357 27.8474 219.199 28.0071 221.41 28.0071C223.621 28.0071 225.452 27.8474 226.901 27.528C228.375 27.2332 229.542 26.8033 230.402 26.2382C231.262 25.6731 231.864 24.9975 232.208 24.2114C232.576 23.4252 232.76 22.5531 232.76 21.5949V18.0203ZM221.41 24.9853C219.936 24.9853 218.708 24.887 217.725 24.6904C216.767 24.4939 216.005 24.2237 215.44 23.8797C214.875 23.5358 214.482 23.1304 214.261 22.6636C214.04 22.1723 213.929 21.6441 213.929 21.079V17.6887C213.929 16.7551 214.261 15.9444 214.924 15.2565C215.612 14.5686 216.841 14.1018 218.609 13.8561C217.43 13.6596 216.57 13.3034 216.03 12.7874C215.514 12.247 215.256 11.5468 215.256 10.6869V6.89121C215.256 5.7611 215.747 4.90124 216.73 4.31162C217.713 3.72199 219.273 3.42718 221.41 3.42718C223.548 3.42718 225.095 3.73428 226.053 4.34847C227.036 4.96266 227.528 5.90851 227.528 7.18602V10.6869C227.528 11.5468 227.27 12.247 226.754 12.7874C226.238 13.3034 225.39 13.6596 224.211 13.8561C225.98 14.1018 227.196 14.5686 227.859 15.2565C228.522 15.9198 228.854 16.7183 228.854 17.6518V21.079C228.854 21.6441 228.744 22.1723 228.523 22.6636C228.301 23.1304 227.908 23.5358 227.343 23.8797C226.803 24.2237 226.041 24.4939 225.058 24.6904C224.1 24.887 222.884 24.9853 221.41 24.9853ZM215.625 6.89121V10.6869C215.625 11.7433 216.104 12.5049 217.062 12.9717C218.02 13.4385 219.469 13.6719 221.41 13.6719C223.351 13.6719 224.788 13.4385 225.722 12.9717C226.68 12.5049 227.159 11.7433 227.159 10.6869V7.18602C227.159 5.98221 226.68 5.12235 225.722 4.60643C224.764 4.06594 223.326 3.7957 221.41 3.7957C219.494 3.7957 218.044 4.05366 217.062 4.56957C216.104 5.06093 215.625 5.83481 215.625 6.89121ZM219.089 9.76562V8.14416C219.089 7.77565 219.211 7.46855 219.457 7.22288C219.727 6.95263 220.378 6.81751 221.41 6.81751C222.467 6.81751 223.105 6.95263 223.326 7.22288C223.572 7.46855 223.695 7.77565 223.695 8.14416V9.76562C223.695 10.1587 223.572 10.4904 223.326 10.7606C223.105 11.0063 222.467 11.1291 221.41 11.1291C220.378 11.1291 219.727 11.0063 219.457 10.7606C219.211 10.4904 219.089 10.1587 219.089 9.76562ZM214.298 17.6887V21.079C214.298 22.1354 214.814 22.9953 215.846 23.6586C216.902 24.2974 218.757 24.6167 221.41 24.6167C224.063 24.6167 225.906 24.2974 226.938 23.6586C227.97 22.9953 228.486 22.1354 228.486 21.079V17.6518C228.486 16.5954 227.957 15.7355 226.901 15.0722C225.869 14.3843 224.039 14.0404 221.41 14.0404C218.781 14.0404 216.939 14.3843 215.882 15.0722C214.826 15.7601 214.298 16.6323 214.298 17.6887ZM218.167 20.1946V18.2414C218.167 17.8729 218.376 17.5658 218.794 17.3202C219.211 17.0499 220.084 16.9148 221.41 16.9148C222.737 16.9148 223.597 17.0499 223.99 17.3202C224.407 17.5658 224.616 17.8729 224.616 18.2414V20.1946C224.616 20.5877 224.407 20.9193 223.99 21.1896C223.597 21.4352 222.737 21.5581 221.41 21.5581C220.084 21.5581 219.211 21.4352 218.794 21.1896C218.376 20.9193 218.167 20.5877 218.167 20.1946Z" fill="white"/>
<path d="M184.281 4.5322L197.843 19.7887V4.23738H198.211V24.1371H197.843V20.3414L183.913 4.71645C183.888 4.69189 183.851 4.66732 183.802 4.64275C183.778 4.61818 183.753 4.6059 183.729 4.6059C183.704 4.6059 183.68 4.61818 183.655 4.64275C183.655 4.66732 183.655 4.69189 183.655 4.71645V24.1371H183.286V4.64275C183.286 4.49535 183.336 4.38479 183.434 4.31109C183.532 4.23739 183.63 4.20053 183.729 4.20053C183.827 4.20053 183.913 4.2251 183.987 4.27424C184.06 4.32337 184.159 4.40936 184.281 4.5322ZM186.271 27.4538C186.738 27.4538 187.07 27.3555 187.266 27.159C187.487 26.9378 187.598 26.5939 187.598 26.1271V13.9662L193.9 21.5944V26.1271C193.9 26.5939 193.998 26.9378 194.194 27.159C194.416 27.3555 194.759 27.4538 195.226 27.4538H200.754C201.221 27.4538 201.552 27.3555 201.749 27.159C201.97 26.9378 202.081 26.5939 202.081 26.1271V2.24741C202.081 1.78063 201.97 1.44896 201.749 1.25242C201.552 1.03131 201.221 0.92076 200.754 0.92076H195.226C194.759 0.92076 194.416 1.03131 194.194 1.25242C193.998 1.44896 193.9 1.78063 193.9 2.24741V10.0968L186.75 1.91575C186.431 1.54723 186.099 1.28927 185.755 1.14187C185.436 0.994462 185.043 0.92076 184.576 0.92076H180.744C180.277 0.92076 179.933 1.03131 179.712 1.25242C179.515 1.44896 179.417 1.78063 179.417 2.24741V26.1271C179.417 26.5939 179.515 26.9378 179.712 27.159C179.933 27.3555 180.277 27.4538 180.744 27.4538H186.271ZM187.451 27.4906L182.66 31.4706C182.562 31.5688 182.402 31.6548 182.181 31.7285C181.984 31.8022 181.763 31.8391 181.518 31.8391H175.99C175.4 31.8391 174.97 31.704 174.7 31.4337C174.43 31.1635 174.295 30.7335 174.295 30.1439V6.26421C174.295 5.94483 174.332 5.67459 174.405 5.45348C174.504 5.23237 174.639 5.04812 174.811 4.90071L179.564 0.883909C179.687 0.785638 179.847 0.711935 180.043 0.662799C180.265 0.589097 180.498 0.552246 180.744 0.552246H184.576C185.117 0.552246 185.571 0.638232 185.94 0.810205C186.308 0.982179 186.677 1.26471 187.045 1.65779L189.588 4.6059L194.047 0.883909C194.17 0.785638 194.33 0.711935 194.526 0.662799C194.747 0.589097 194.981 0.552246 195.226 0.552246H200.754C201.344 0.552246 201.774 0.687368 202.044 0.957611C202.314 1.22786 202.449 1.65779 202.449 2.24741V26.1271C202.449 26.4465 202.4 26.7167 202.302 26.9378C202.228 27.159 202.105 27.3432 201.933 27.4906L197.143 31.4706C197.044 31.5688 196.885 31.6548 196.663 31.7285C196.467 31.8022 196.246 31.8391 196 31.8391H190.472C189.883 31.8391 189.453 31.704 189.183 31.4337C188.912 31.1635 188.777 30.7335 188.777 30.1439V25.7586L187.967 24.7636V26.1271C187.967 26.4465 187.917 26.7167 187.819 26.9378C187.745 27.159 187.623 27.3432 187.451 27.4906Z" fill="white"/>
<path d="M164.459 30.0707C163.599 30.8078 162.396 31.3728 160.848 31.7659C159.3 32.1836 157.31 32.3924 154.878 32.3924C152.47 32.3924 150.493 32.1344 148.945 31.6185C147.422 31.1272 146.218 30.4638 145.333 29.6285C144.474 28.7932 143.872 27.8351 143.528 26.7541C143.208 25.6731 143.049 24.5553 143.049 23.4006V11.9399C143.049 10.8097 143.208 9.76562 143.528 8.80749C143.847 7.82478 144.424 6.98949 145.26 6.30159L150.05 2.32164C150.91 1.58461 152.102 1.01956 153.625 0.626475C155.173 0.208825 157.175 0 159.632 0C162.039 0 164.005 0.196541 165.528 0.589624C167.076 0.982705 168.28 1.53548 169.139 2.24794C170.024 2.93583 170.626 3.77113 170.945 4.75383C171.264 5.71197 171.424 6.76837 171.424 7.92305V20.4894C171.424 21.6195 171.264 22.6636 170.945 23.6217C170.626 24.5799 170.048 25.4029 169.213 26.0908L164.459 30.0707ZM171.056 20.4894V7.92305C171.056 6.79294 170.884 5.77339 170.54 4.86439C170.22 3.93082 169.631 3.13237 168.771 2.46905C167.936 1.80572 166.769 1.2898 165.27 0.921286C163.796 0.552773 161.916 0.368516 159.632 0.368516C157.347 0.368516 155.455 0.552773 153.957 0.921286C152.458 1.2898 151.279 1.80572 150.419 2.46905C149.584 3.13237 148.994 3.93082 148.65 4.86439C148.331 5.77339 148.171 6.79294 148.171 7.92305V20.4894C148.171 21.6195 148.331 22.6513 148.65 23.5849C148.994 24.4939 149.584 25.2801 150.419 25.9434C151.279 26.5821 152.458 27.0858 153.957 27.4543C155.455 27.8228 157.347 28.0071 159.632 28.0071C161.916 28.0071 163.796 27.8228 165.27 27.4543C166.769 27.0858 167.936 26.5821 168.771 25.9434C169.631 25.2801 170.22 24.4939 170.54 23.5849C170.884 22.6513 171.056 21.6195 171.056 20.4894ZM167.039 19.6418C167.039 21.1159 166.511 22.3197 165.454 23.2532C164.398 24.1622 162.432 24.6167 159.558 24.6167C156.684 24.6167 154.73 24.1622 153.699 23.2532C152.667 22.3197 152.151 21.1159 152.151 19.6418V8.77063C152.151 7.29658 152.667 6.10505 153.699 5.19605C154.73 4.26248 156.684 3.7957 159.558 3.7957C162.432 3.7957 164.398 4.26248 165.454 5.19605C166.511 6.10505 167.039 7.29658 167.039 8.77063V19.6418ZM152.519 19.6418C152.519 21.0176 153.011 22.1354 153.993 22.9953C154.976 23.8306 156.831 24.2482 159.558 24.2482C162.285 24.2482 164.152 23.8306 165.159 22.9953C166.167 22.1354 166.67 21.0176 166.67 19.6418V8.77063C166.67 7.39485 166.167 6.28931 165.159 5.45401C164.152 4.59414 162.285 4.16421 159.558 4.16421C156.831 4.16421 154.976 4.59414 153.993 5.45401C153.011 6.28931 152.519 7.39485 152.519 8.77063V19.6418ZM156.536 19.1627V9.2497C156.536 8.78292 156.72 8.38984 157.089 8.07046C157.457 7.72651 158.305 7.55454 159.632 7.55454C160.958 7.55454 161.806 7.72651 162.174 8.07046C162.543 8.38984 162.727 8.78292 162.727 9.2497V19.1627C162.727 19.6541 162.543 20.0717 162.174 20.4157C161.806 20.7351 160.958 20.8947 159.632 20.8947C158.305 20.8947 157.457 20.7351 157.089 20.4157C156.72 20.0717 156.536 19.6541 156.536 19.1627ZM156.905 19.1627C156.905 19.4084 156.954 19.6295 157.052 19.8261C157.15 19.998 157.335 20.1454 157.605 20.2683V13.2665C157.605 13.0208 157.556 12.812 157.457 12.64C157.359 12.4435 157.175 12.2961 156.905 12.1978V19.1627Z" fill="white"/>
<path d="M134.276 31.8391H118.577C117.987 31.8391 117.557 31.704 117.287 31.4337C117.017 31.1635 116.882 30.7335 116.882 30.1439V25.7586C116.882 25.4392 116.919 25.169 116.992 24.9479C117.091 24.7268 117.226 24.5425 117.398 24.3951L121.857 20.6363V12.4184H118.577C117.987 12.4184 117.557 12.2833 117.287 12.013C117.017 11.7428 116.882 11.3129 116.882 10.7232V6.26421C116.882 5.94483 116.919 5.67459 116.992 5.45348C117.091 5.23237 117.226 5.04812 117.398 4.90071L122.151 0.883909C122.274 0.785638 122.434 0.711935 122.631 0.662799C122.852 0.589097 123.085 0.552246 123.331 0.552246H139.029C139.619 0.552246 140.049 0.687368 140.319 0.957611C140.589 1.22786 140.725 1.65779 140.725 2.24741V6.70643C140.725 7.02581 140.675 7.29605 140.577 7.51716C140.503 7.73827 140.381 7.92253 140.209 8.06993L135.823 11.7551V20.0466H139.029C139.619 20.0466 140.049 20.1818 140.319 20.452C140.589 20.7222 140.725 21.1522 140.725 21.7418V26.1271C140.725 26.4465 140.675 26.7167 140.577 26.9378C140.503 27.159 140.381 27.3432 140.209 27.4906L135.418 31.4706C135.32 31.5688 135.16 31.6548 134.939 31.7285C134.742 31.8022 134.521 31.8391 134.276 31.8391ZM123.331 27.4538H139.029C139.496 27.4538 139.828 27.3555 140.024 27.159C140.246 26.9379 140.356 26.5939 140.356 26.1271V21.7418C140.356 21.275 140.246 20.9434 140.024 20.7468C139.828 20.5257 139.496 20.4152 139.029 20.4152H135.455V8.03308H139.029C139.496 8.03308 139.828 7.93481 140.024 7.73827C140.246 7.51716 140.356 7.17321 140.356 6.70643V2.24741C140.356 1.78063 140.246 1.44896 140.024 1.25242C139.828 1.03131 139.496 0.92076 139.029 0.92076H123.331C122.864 0.92076 122.52 1.03131 122.299 1.25242C122.102 1.44896 122.004 1.78063 122.004 2.24741V6.70643C122.004 7.17321 122.102 7.51716 122.299 7.73827C122.52 7.93481 122.864 8.03308 123.331 8.03308H126.979V20.4152H123.331C122.864 20.4152 122.52 20.5257 122.299 20.7468C122.102 20.9434 122.004 21.275 122.004 21.7418V26.1271C122.004 26.5939 122.102 26.9379 122.299 27.159C122.52 27.3555 122.864 27.4538 123.331 27.4538ZM137.039 24.1371H125.321V23.7686H131.033V4.6059H125.321V4.23738H137.039V4.6059H131.401V23.7686H137.039V24.1371Z" fill="white"/>
<path d="M96.0413 4.5322L109.603 19.7887V4.23738H109.971V24.1371H109.603V20.3414L95.6728 4.71645C95.6482 4.69189 95.6114 4.66732 95.5622 4.64275C95.5377 4.61818 95.5131 4.6059 95.4885 4.6059C95.464 4.6059 95.4394 4.61818 95.4148 4.64275C95.4148 4.66732 95.4148 4.69189 95.4148 4.71645V24.1371H95.0463V4.64275C95.0463 4.49535 95.0954 4.38479 95.1937 4.31109C95.292 4.23739 95.3902 4.20053 95.4885 4.20053C95.5868 4.20053 95.6728 4.2251 95.7465 4.27424C95.8202 4.32337 95.9185 4.40936 96.0413 4.5322ZM98.0313 27.4538C98.498 27.4538 98.8297 27.3555 99.0263 27.159C99.2474 26.9379 99.3579 26.5939 99.3579 26.1271V13.9662L105.66 21.5944V26.1271C105.66 26.5939 105.758 26.9379 105.954 27.159C106.175 27.3555 106.519 27.4538 106.986 27.4538H112.514C112.981 27.4538 113.312 27.3555 113.509 27.159C113.73 26.9379 113.841 26.5939 113.841 26.1271V2.24741C113.841 1.78063 113.73 1.44896 113.509 1.25242C113.312 1.03131 112.981 0.92076 112.514 0.92076H106.986C106.519 0.92076 106.175 1.03131 105.954 1.25242C105.758 1.44896 105.66 1.78063 105.66 2.24741V10.0968L98.5103 1.91575C98.191 1.54723 97.8593 1.28927 97.5153 1.14187C97.196 0.994462 96.8029 0.92076 96.3361 0.92076H92.5036C92.0368 0.92076 91.6928 1.03131 91.4717 1.25242C91.2752 1.44896 91.1769 1.78063 91.1769 2.24741V26.1271C91.1769 26.5939 91.2752 26.9379 91.4717 27.159C91.6928 27.3555 92.0368 27.4538 92.5036 27.4538H98.0313ZM99.2105 27.4906L94.4198 31.4706C94.3216 31.5688 94.1619 31.6548 93.9408 31.7285C93.7442 31.8022 93.5231 31.8391 93.2774 31.8391H87.7497C87.1601 31.8391 86.7302 31.704 86.4599 31.4337C86.1897 31.1635 86.0546 30.7335 86.0546 30.1439V6.26421C86.0546 5.94483 86.0914 5.67459 86.1651 5.45348C86.2634 5.23237 86.3985 5.04812 86.5705 4.90071L91.3243 0.883909C91.4472 0.785638 91.6068 0.711935 91.8034 0.662799C92.0245 0.589097 92.2579 0.552246 92.5036 0.552246H96.3361C96.8766 0.552246 97.3311 0.638232 97.6996 0.810205C98.0681 0.982179 98.4366 1.26471 98.8052 1.65779L101.348 4.6059L105.807 0.883909C105.93 0.785638 106.089 0.711935 106.286 0.662799C106.507 0.589097 106.74 0.552246 106.986 0.552246H112.514C113.103 0.552246 113.533 0.687368 113.804 0.957611C114.074 1.22786 114.209 1.65779 114.209 2.24741V26.1271C114.209 26.4465 114.16 26.7167 114.062 26.9378C113.988 27.159 113.865 27.3432 113.693 27.4906L108.902 31.4706C108.804 31.5688 108.644 31.6548 108.423 31.7285C108.227 31.8022 108.006 31.8391 107.76 31.8391H102.232C101.643 31.8391 101.213 31.704 100.943 31.4337C100.672 31.1635 100.537 30.7335 100.537 30.1439V25.7586L99.7264 24.7636V26.1271C99.7264 26.4465 99.6773 26.7167 99.579 26.9378C99.5053 27.159 99.3825 27.3432 99.2105 27.4906Z" fill="white"/>
<path d="M76.8762 31.8391H61.1775C60.5878 31.8391 60.1579 31.704 59.8877 31.4337C59.6174 31.1635 59.4823 30.7335 59.4823 30.1439V25.7586C59.4823 25.4392 59.5192 25.169 59.5929 24.9479C59.6911 24.7268 59.8262 24.5425 59.9982 24.3951L64.4572 20.6363V12.4184H61.1775C60.5878 12.4184 60.1579 12.2833 59.8877 12.013C59.6174 11.7428 59.4823 11.3129 59.4823 10.7232V6.26421C59.4823 5.94483 59.5192 5.67459 59.5929 5.45348C59.6911 5.23237 59.8262 5.04812 59.9982 4.90071L64.752 0.883909C64.8749 0.785638 65.0346 0.711935 65.2311 0.662799C65.4522 0.589097 65.6856 0.552246 65.9313 0.552246H81.63C82.2196 0.552246 82.6496 0.687368 82.9198 0.957611C83.19 1.22786 83.3252 1.65779 83.3252 2.24741V6.70643C83.3252 7.02581 83.276 7.29605 83.1778 7.51716C83.1041 7.73827 82.9812 7.92253 82.8092 8.06993L78.4239 11.7551V20.0466H81.63C82.2196 20.0466 82.6496 20.1818 82.9198 20.452C83.19 20.7222 83.3252 21.1522 83.3252 21.7418V26.1271C83.3252 26.4465 83.276 26.7167 83.1778 26.9378C83.1041 27.159 82.9812 27.3432 82.8092 27.4906L78.0186 31.4706C77.9203 31.5688 77.7606 31.6548 77.5395 31.7285C77.343 31.8022 77.1218 31.8391 76.8762 31.8391ZM65.9313 27.4538H81.63C82.0968 27.4538 82.4284 27.3555 82.625 27.159C82.8461 26.9379 82.9566 26.5939 82.9566 26.1271V21.7418C82.9566 21.275 82.8461 20.9434 82.625 20.7468C82.4284 20.5257 82.0968 20.4152 81.63 20.4152H78.0554V8.03308H81.63C82.0968 8.03308 82.4284 7.93481 82.625 7.73827C82.8461 7.51716 82.9566 7.17321 82.9566 6.70643V2.24741C82.9566 1.78063 82.8461 1.44896 82.625 1.25242C82.4284 1.03131 82.0968 0.92076 81.63 0.92076H65.9313C65.4645 0.92076 65.1206 1.03131 64.8995 1.25242C64.7029 1.44896 64.6046 1.78063 64.6046 2.24741V6.70643C64.6046 7.17321 64.7029 7.51716 64.8995 7.73827C65.1206 7.93481 65.4645 8.03308 65.9313 8.03308H69.5796V20.4152H65.9313C65.4645 20.4152 65.1206 20.5257 64.8995 20.7468C64.7029 20.9434 64.6046 21.275 64.6046 21.7418V26.1271C64.6046 26.5939 64.7029 26.9379 64.8995 27.159C65.1206 27.3555 65.4645 27.4538 65.9313 27.4538ZM79.64 24.1371H67.9213V23.7686H73.6332V4.6059H67.9213V4.23738H79.64V4.6059H74.0018V23.7686H79.64V24.1371Z" fill="white"/>
<path d="M38.6533 31.8391H32.9414C32.3518 31.8391 31.9218 31.704 31.6516 31.4337C31.3813 31.1635 31.2462 30.7335 31.2462 30.1439V6.26421C31.2462 5.94483 31.2831 5.67459 31.3568 5.45348C31.455 5.23237 31.5902 5.04812 31.7621 4.90071L36.516 0.883909C36.6388 0.785638 36.7985 0.711935 36.995 0.662799C37.2161 0.589097 37.4495 0.552246 37.6952 0.552246H48.9717C50.716 0.552246 52.1778 0.736503 53.3571 1.10502C54.5363 1.47353 55.4699 1.98945 56.1578 2.65278C56.8457 3.3161 57.3247 4.11455 57.595 5.04812C57.8898 5.98168 58.0372 7.00124 58.0372 8.10678V12.8238C58.0372 14.003 57.8652 15.084 57.5213 16.0667C57.2019 17.0248 56.6368 17.8478 55.8261 18.5357L51.0354 22.5157C50.4212 23.0316 49.6228 23.4615 48.6401 23.8055C47.6819 24.1249 46.5027 24.3091 45.1023 24.3582V26.1271C45.1023 26.4465 45.0532 26.7167 44.9549 26.9378C44.8812 27.159 44.7584 27.3432 44.5864 27.4906L39.7957 31.4706C39.6975 31.5688 39.5378 31.6548 39.3167 31.7285C39.1201 31.8022 38.899 31.8391 38.6533 31.8391ZM43.4072 27.4538C43.874 27.4538 44.2056 27.3555 44.4022 27.159C44.6233 26.9379 44.7338 26.5939 44.7338 26.1271V20.0098H48.9717C52.3129 20.0098 54.5977 19.3465 55.8261 18.0198C57.0545 16.6932 57.6687 14.9611 57.6687 12.8238V8.10678C57.6687 5.9694 57.0545 4.23739 55.8261 2.91074C54.5977 1.58409 52.3129 0.92076 48.9717 0.92076H37.6952C37.2284 0.92076 36.8845 1.03131 36.6634 1.25242C36.4668 1.44896 36.3686 1.78063 36.3686 2.24741V26.1271C36.3686 26.5939 36.4668 26.9379 36.6634 27.159C36.8845 27.3555 37.2284 27.4538 37.6952 27.4538H43.4072ZM48.4558 16.8774H40.8644V24.1371H40.4959V4.23738H48.4558C49.6105 4.23738 50.5441 4.37251 51.2565 4.64275C51.9936 4.88843 52.5586 5.23237 52.9517 5.67459C53.3448 6.11681 53.615 6.64501 53.7624 7.2592C53.9098 7.87339 53.9835 8.53672 53.9835 9.24918V11.9762C53.9835 12.6886 53.9098 13.352 53.7624 13.9662C53.615 14.5558 53.3448 15.0717 52.9517 15.5139C52.5586 15.9316 51.9936 16.2632 51.2565 16.5089C50.5441 16.7546 49.6105 16.8774 48.4558 16.8774ZM40.8644 16.5089H48.4558C49.5368 16.5089 50.4089 16.3983 51.0723 16.1772C51.7602 15.9561 52.2884 15.649 52.6569 15.256C53.0254 14.8383 53.2711 14.3592 53.3939 13.8188C53.5413 13.2537 53.615 12.6395 53.615 11.9762V9.24918C53.615 8.58585 53.5413 7.97166 53.3939 7.40661C53.2711 6.84155 53.0254 6.3502 52.6569 5.93255C52.2884 5.5149 51.7602 5.19552 51.0723 4.97441C50.4089 4.72874 49.5368 4.6059 48.4558 4.6059H40.8644V16.5089ZM44.6601 7.81197H47.9768C48.6892 7.81197 49.156 7.99623 49.3771 8.36474C49.5982 8.73326 49.7088 9.15091 49.7088 9.61769V11.5708C49.7088 12.0376 49.5982 12.4552 49.3771 12.8238C49.156 13.1923 48.6892 13.3765 47.9768 13.3765H44.6601V7.81197Z" fill="white"/>
<path d="M21.4107 30.0707C20.5508 30.8078 19.347 31.3728 17.7992 31.7659C16.2515 32.1836 14.2615 32.3924 11.8293 32.3924C9.42168 32.3924 7.44398 32.1344 5.89622 31.6185C4.37303 31.1272 3.16922 30.4638 2.28479 29.6285C1.42492 28.7932 0.823015 27.8351 0.479068 26.7541C0.159689 25.6731 0 24.5553 0 23.4006V11.9399C0 10.8097 0.159689 9.76562 0.479068 8.80749C0.798447 7.82478 1.37579 6.98949 2.21108 6.30159L7.00177 2.32164C7.86163 1.58461 9.05316 1.01956 10.5764 0.626475C12.1241 0.208825 14.1264 0 16.5831 0C18.9908 0 20.9562 0.196541 22.4794 0.589624C24.0271 0.982705 25.2309 1.53548 26.0908 2.24794C26.9752 2.93583 27.5771 3.77113 27.8965 4.75383C28.2159 5.71197 28.3756 6.76837 28.3756 7.92305V20.4894C28.3756 21.6195 28.2159 22.6636 27.8965 23.6217C27.5771 24.5799 26.9998 25.4029 26.1645 26.0908L21.4107 30.0707ZM28.0071 20.4894V7.92305C28.0071 6.79294 27.8351 5.77339 27.4911 4.86439C27.1718 3.93082 26.5821 3.13237 25.7223 2.46905C24.887 1.80572 23.72 1.2898 22.2214 0.921286C20.7473 0.552773 18.8679 0.368516 16.5831 0.368516C14.2983 0.368516 12.4066 0.552773 10.908 0.921286C9.40939 1.2898 8.23015 1.80572 7.37028 2.46905C6.53498 3.13237 5.94536 3.93082 5.60141 4.86439C5.28203 5.77339 5.12235 6.79294 5.12235 7.92305V20.4894C5.12235 21.6195 5.28203 22.6513 5.60141 23.5849C5.94536 24.4939 6.53498 25.2801 7.37028 25.9434C8.23015 26.5821 9.40939 27.0858 10.908 27.4543C12.4066 27.8228 14.2983 28.0071 16.5831 28.0071C18.8679 28.0071 20.7473 27.8228 22.2214 27.4543C23.72 27.0858 24.887 26.5821 25.7223 25.9434C26.5821 25.2801 27.1718 24.4939 27.4911 23.5849C27.8351 22.6513 28.0071 21.6195 28.0071 20.4894ZM23.9903 19.6418C23.9903 21.1159 23.4621 22.3197 22.4057 23.2532C21.3492 24.1622 19.3838 24.6167 16.5094 24.6167C13.635 24.6167 11.6819 24.1622 10.6501 23.2532C9.61822 22.3197 9.1023 21.1159 9.1023 19.6418V8.77063C9.1023 7.29658 9.61822 6.10505 10.6501 5.19605C11.6819 4.26248 13.635 3.7957 16.5094 3.7957C19.3838 3.7957 21.3492 4.26248 22.4057 5.19605C23.4621 6.10505 23.9903 7.29658 23.9903 8.77063V19.6418ZM9.47081 19.6418C9.47081 21.0176 9.96216 22.1354 10.9449 22.9953C11.9276 23.8306 13.7824 24.2482 16.5094 24.2482C19.2364 24.2482 21.1036 23.8306 22.1108 22.9953C23.1181 22.1354 23.6217 21.0176 23.6217 19.6418V8.77063C23.6217 7.39485 23.1181 6.28931 22.1108 5.45401C21.1036 4.59414 19.2364 4.16421 16.5094 4.16421C13.7824 4.16421 11.9276 4.59414 10.9449 5.45401C9.96216 6.28931 9.47081 7.39485 9.47081 8.77063V19.6418ZM13.4876 19.1627V9.2497C13.4876 8.78292 13.6719 8.38984 14.0404 8.07046C14.4089 7.72651 15.2565 7.55454 16.5831 7.55454C17.9098 7.55454 18.7574 7.72651 19.1259 8.07046C19.4944 8.38984 19.6786 8.78292 19.6786 9.2497V19.1627C19.6786 19.6541 19.4944 20.0717 19.1259 20.4157C18.7574 20.7351 17.9098 20.8947 16.5831 20.8947C15.2565 20.8947 14.4089 20.7351 14.0404 20.4157C13.6719 20.0717 13.4876 19.6541 13.4876 19.1627ZM13.8561 19.1627C13.8561 19.4084 13.9053 19.6295 14.0035 19.8261C14.1018 19.998 14.2861 20.1454 14.5563 20.2683V13.2665C14.5563 13.0208 14.5072 12.812 14.4089 12.64C14.3106 12.4435 14.1264 12.2961 13.8561 12.1978V19.1627Z" fill="white"/>
</svg>
