<svg width="216" height="30" viewBox="0 0 216 30" fill="none" xmlns="http://www.w3.org/2000/svg">
<path d="M199.847 29.8792C197.694 29.8792 195.915 29.6866 194.51 29.3013C193.105 28.9161 191.994 28.4062 191.179 27.7717C190.363 27.1371 189.796 26.4006 189.479 25.5622C189.162 24.7237 189.003 23.8512 189.003 22.9448V20.3274C189.003 19.2169 189.162 18.2765 189.479 17.506C189.819 16.7355 190.261 16.1237 190.805 15.6704L191.859 14.7866C191.405 14.4014 191.077 13.9255 190.873 13.3589C190.691 12.7698 190.601 12.1126 190.601 11.3874V9.41585C190.601 8.6227 190.725 7.89753 190.975 7.24035C191.224 6.5605 191.643 5.98263 192.232 5.50674L196.617 1.80159C197.297 1.23505 198.249 0.793154 199.473 0.475893C200.719 0.158631 202.317 0 204.266 0C206.079 0 207.574 0.135969 208.753 0.407908C209.954 0.679846 210.894 1.06509 211.574 1.56364C212.277 2.0622 212.764 2.66273 213.036 3.36523C213.308 4.06774 213.444 4.84956 213.444 5.7107V7.68225C213.444 8.43007 213.342 9.09859 213.138 9.68779C212.934 10.2543 212.605 10.7302 212.152 11.1155L211.982 11.2514C212.866 11.5914 213.591 12.2032 214.157 13.087C214.747 13.9481 215.041 15.1265 215.041 16.6222V19.9195C215.041 20.7579 214.905 21.5284 214.633 22.2309C214.361 22.9334 213.908 23.5566 213.274 24.1005L208.889 27.7717C208.118 28.4288 206.996 28.9387 205.523 29.3013C204.073 29.6866 202.181 29.8792 199.847 29.8792ZM214.701 16.6222C214.701 15.0359 214.35 13.8122 213.648 12.951C212.968 12.0899 212.118 11.5574 211.098 11.3534C211.846 11.0361 212.367 10.5603 212.662 9.92573C212.956 9.29121 213.104 8.54338 213.104 7.68225V5.7107C213.104 4.87222 212.956 4.12439 212.662 3.46721C212.39 2.81003 211.914 2.25482 211.234 1.80159C210.577 1.3257 209.67 0.963114 208.515 0.713838C207.382 0.464562 205.965 0.339924 204.266 0.339924C202.566 0.339924 201.138 0.464562 199.983 0.713838C198.827 0.963114 197.909 1.3257 197.229 1.80159C196.549 2.25482 196.062 2.81003 195.768 3.46721C195.473 4.12439 195.326 4.87222 195.326 5.7107V7.68225C195.326 8.54338 195.473 9.29121 195.768 9.92573C196.062 10.5603 196.583 11.0361 197.331 11.3534C196.312 11.5574 195.45 12.0899 194.748 12.951C194.068 13.8122 193.728 15.0359 193.728 16.6222V19.9195C193.728 20.8032 193.887 21.6077 194.204 22.3329C194.544 23.0581 195.11 23.6813 195.904 24.2025C196.697 24.7237 197.773 25.1203 199.133 25.3922C200.493 25.6868 202.192 25.8341 204.232 25.8341C206.271 25.8341 207.96 25.6868 209.297 25.3922C210.656 25.1203 211.733 24.7237 212.526 24.2025C213.319 23.6813 213.874 23.0581 214.191 22.3329C214.531 21.6077 214.701 20.8032 214.701 19.9195V16.6222ZM204.232 23.0467C202.872 23.0467 201.739 22.9561 200.832 22.7748C199.949 22.5935 199.246 22.3442 198.725 22.027C198.204 21.7097 197.841 21.3358 197.637 20.9052C197.433 20.452 197.331 19.9648 197.331 19.4436V16.3163C197.331 15.4551 197.637 14.7073 198.249 14.0728C198.884 13.4383 200.017 13.0077 201.648 12.7811C200.561 12.5998 199.767 12.2712 199.269 11.7953C198.793 11.2968 198.555 10.6509 198.555 9.85775V6.35655C198.555 5.31412 199.008 4.52097 199.915 3.97709C200.821 3.43322 202.26 3.16128 204.232 3.16128C206.203 3.16128 207.631 3.44455 208.515 4.01108C209.421 4.57762 209.874 5.45009 209.874 6.62849V9.85775C209.874 10.6509 209.636 11.2968 209.161 11.7953C208.685 12.2712 207.903 12.5998 206.815 12.7811C208.447 13.0077 209.568 13.4383 210.18 14.0728C210.792 14.6846 211.098 15.4211 211.098 16.2823V19.4436C211.098 19.9648 210.996 20.452 210.792 20.9052C210.588 21.3358 210.226 21.7097 209.704 22.027C209.206 22.3442 208.503 22.5935 207.597 22.7748C206.713 22.9561 205.591 23.0467 204.232 23.0467ZM198.895 6.35655V9.85775C198.895 10.8322 199.337 11.5347 200.221 11.9653C201.104 12.3958 202.441 12.6111 204.232 12.6111C206.022 12.6111 207.348 12.3958 208.209 11.9653C209.093 11.5347 209.534 10.8322 209.534 9.85775V6.62849C209.534 5.51807 209.093 4.72492 208.209 4.24903C207.325 3.75048 205.999 3.5012 204.232 3.5012C202.464 3.5012 201.127 3.73915 200.221 4.21504C199.337 4.66827 198.895 5.38211 198.895 6.35655ZM202.09 9.00794V7.51228C202.09 7.17236 202.203 6.88909 202.43 6.66248C202.679 6.4132 203.28 6.28856 204.232 6.28856C205.206 6.28856 205.795 6.4132 205.999 6.66248C206.226 6.88909 206.339 7.17236 206.339 7.51228V9.00794C206.339 9.37053 206.226 9.67646 205.999 9.92573C205.795 10.1523 205.206 10.2657 204.232 10.2657C203.28 10.2657 202.679 10.1523 202.43 9.92573C202.203 9.67646 202.09 9.37053 202.09 9.00794ZM197.671 16.3163V19.4436C197.671 20.418 198.147 21.2112 199.099 21.823C200.073 22.4122 201.784 22.7068 204.232 22.7068C206.679 22.7068 208.379 22.4122 209.331 21.823C210.282 21.2112 210.758 20.418 210.758 19.4436V16.2823C210.758 15.3078 210.271 14.5147 209.297 13.9028C208.345 13.2683 206.656 12.951 204.232 12.951C201.807 12.951 200.107 13.2683 199.133 13.9028C198.158 14.5373 197.671 15.3418 197.671 16.3163ZM201.24 18.6277V16.8262C201.24 16.4862 201.433 16.203 201.818 15.9764C202.203 15.7271 203.008 15.6024 204.232 15.6024C205.455 15.6024 206.249 15.7271 206.611 15.9764C206.996 16.203 207.189 16.4862 207.189 16.8262V18.6277C207.189 18.9903 206.996 19.2963 206.611 19.5455C206.249 19.7722 205.455 19.8855 204.232 19.8855C203.008 19.8855 202.203 19.7722 201.818 19.5455C201.433 19.2963 201.24 18.9903 201.24 18.6277Z" fill="#2727E6"/>
<path fill-rule="evenodd" clip-rule="evenodd" d="M214.701 16.6222C214.701 15.0359 214.35 13.8122 213.648 12.951C212.968 12.0899 212.118 11.5574 211.098 11.3534C211.846 11.0361 212.367 10.5603 212.662 9.92573C212.956 9.29121 213.104 8.54338 213.104 7.68225V5.7107C213.104 4.87222 212.956 4.12439 212.662 3.46721C212.39 2.81003 211.914 2.25482 211.234 1.80159C210.577 1.3257 209.67 0.963114 208.515 0.713838C207.382 0.464562 205.965 0.339924 204.266 0.339924C202.566 0.339924 201.138 0.464562 199.983 0.713838C198.827 0.963114 197.909 1.3257 197.229 1.80159C196.549 2.25482 196.062 2.81003 195.768 3.46721C195.473 4.12439 195.326 4.87222 195.326 5.7107V7.68225C195.326 8.54338 195.473 9.29121 195.768 9.92573C196.062 10.5603 196.583 11.0361 197.331 11.3534C196.312 11.5574 195.45 12.0899 194.748 12.951C194.068 13.8122 193.728 15.0359 193.728 16.6222V19.9195C193.728 20.8032 193.887 21.6077 194.204 22.3329C194.544 23.0581 195.11 23.6813 195.904 24.2025C196.697 24.7237 197.773 25.1203 199.133 25.3922C200.493 25.6868 202.192 25.8341 204.232 25.8341C206.271 25.8341 207.96 25.6868 209.297 25.3922C210.656 25.1203 211.733 24.7237 212.526 24.2025C213.319 23.6813 213.874 23.0581 214.191 22.3329C214.531 21.6077 214.701 20.8032 214.701 19.9195V16.6222ZM200.832 22.7748C201.739 22.9561 202.872 23.0467 204.232 23.0467C205.591 23.0467 206.713 22.9561 207.597 22.7748C208.503 22.5935 209.206 22.3442 209.704 22.027C210.226 21.7097 210.588 21.3358 210.792 20.9052C210.996 20.452 211.098 19.9648 211.098 19.4436V16.2823C211.098 15.4211 210.792 14.6846 210.18 14.0728C209.568 13.4383 208.447 13.0077 206.815 12.7811C207.903 12.5998 208.685 12.2712 209.161 11.7953C209.636 11.2968 209.874 10.6509 209.874 9.85775V6.62849C209.874 5.45009 209.421 4.57762 208.515 4.01108C207.631 3.44455 206.203 3.16128 204.232 3.16128C202.26 3.16128 200.821 3.43322 199.915 3.97709C199.008 4.52097 198.555 5.31412 198.555 6.35655V9.85775C198.555 10.6509 198.793 11.2968 199.269 11.7953C199.767 12.2712 200.561 12.5998 201.648 12.7811C200.017 13.0077 198.884 13.4383 198.249 14.0728C197.637 14.7073 197.331 15.4551 197.331 16.3163V19.4436C197.331 19.9648 197.433 20.452 197.637 20.9052C197.841 21.3358 198.204 21.7097 198.725 22.027C199.246 22.3442 199.949 22.5935 200.832 22.7748Z" fill="white"/>
<path fill-rule="evenodd" clip-rule="evenodd" d="M198.895 6.35655V9.85775C198.895 10.8322 199.337 11.5347 200.221 11.9653C201.104 12.3958 202.441 12.6111 204.232 12.6111C206.022 12.6111 207.348 12.3958 208.209 11.9653C209.093 11.5347 209.534 10.8322 209.534 9.85775V6.62849C209.534 5.51807 209.093 4.72492 208.209 4.24903C207.325 3.75048 205.999 3.5012 204.232 3.5012C202.464 3.5012 201.127 3.73915 200.221 4.21504C199.337 4.66827 198.895 5.38211 198.895 6.35655ZM202.09 7.51228V9.00794C202.09 9.37053 202.203 9.67646 202.43 9.92573C202.679 10.1523 203.28 10.2657 204.232 10.2657C205.206 10.2657 205.795 10.1523 205.999 9.92573C206.226 9.67646 206.339 9.37053 206.339 9.00794V7.51228C206.339 7.17236 206.226 6.88909 205.999 6.66248C205.795 6.4132 205.206 6.28856 204.232 6.28856C203.28 6.28856 202.679 6.4132 202.43 6.66248C202.203 6.88909 202.09 7.17236 202.09 7.51228Z" fill="white"/>
<path fill-rule="evenodd" clip-rule="evenodd" d="M197.671 16.3163V19.4436C197.671 20.418 198.147 21.2112 199.099 21.823C200.073 22.4122 201.784 22.7068 204.232 22.7068C206.679 22.7068 208.379 22.4122 209.331 21.823C210.282 21.2112 210.758 20.418 210.758 19.4436V16.2823C210.758 15.3078 210.271 14.5147 209.297 13.9028C208.345 13.2683 206.656 12.951 204.232 12.951C201.807 12.951 200.107 13.2683 199.133 13.9028C198.158 14.5373 197.671 15.3418 197.671 16.3163ZM201.24 16.8262V18.6277C201.24 18.9903 201.433 19.2963 201.818 19.5455C202.203 19.7722 203.008 19.8855 204.232 19.8855C205.455 19.8855 206.249 19.7722 206.611 19.5455C206.996 19.2963 207.189 18.9903 207.189 18.6277V16.8262C207.189 16.4862 206.996 16.203 206.611 15.9764C206.249 15.7271 205.455 15.6024 204.232 15.6024C203.008 15.6024 202.203 15.7271 201.818 15.9764C201.433 16.203 201.24 16.4862 201.24 16.8262Z" fill="white"/>
<path d="M169.984 4.18044L182.493 18.2532V3.9085H182.833V22.2643H182.493V18.7631L169.644 4.3504C169.621 4.32774 169.587 4.30508 169.542 4.28242C169.519 4.25975 169.496 4.24842 169.474 4.24842C169.451 4.24842 169.428 4.25975 169.406 4.28242C169.406 4.30508 169.406 4.32774 169.406 4.3504V22.2643H169.066V4.28242C169.066 4.14645 169.111 4.04447 169.202 3.97649C169.292 3.9085 169.383 3.87451 169.474 3.87451C169.564 3.87451 169.644 3.89717 169.712 3.94249C169.78 3.98782 169.87 4.06713 169.984 4.18044ZM171.819 25.3236C172.25 25.3236 172.556 25.233 172.737 25.0517C172.941 24.8477 173.043 24.5305 173.043 24.0999V12.8825L178.856 19.9188V24.0999C178.856 24.5305 178.946 24.8477 179.128 25.0517C179.331 25.233 179.649 25.3236 180.079 25.3236H185.178C185.609 25.3236 185.915 25.233 186.096 25.0517C186.3 24.8477 186.402 24.5305 186.402 24.0999V2.07292C186.402 1.64235 186.3 1.33642 186.096 1.15513C185.915 0.951176 185.609 0.849199 185.178 0.849199H180.079C179.649 0.849199 179.331 0.951176 179.128 1.15513C178.946 1.33642 178.856 1.64235 178.856 2.07292V9.31326L172.261 1.76699C171.967 1.42707 171.661 1.18912 171.343 1.05315C171.049 0.917184 170.686 0.849199 170.256 0.849199H166.72C166.29 0.849199 165.973 0.951176 165.769 1.15513C165.587 1.33642 165.497 1.64235 165.497 2.07292V24.0999C165.497 24.5305 165.587 24.8477 165.769 25.0517C165.973 25.233 166.29 25.3236 166.72 25.3236H171.819ZM172.907 25.3576L168.488 29.0288C168.397 29.1194 168.25 29.1987 168.046 29.2667C167.865 29.3347 167.661 29.3687 167.434 29.3687H162.335C161.791 29.3687 161.395 29.244 161.146 28.9948C160.896 28.7455 160.772 28.3489 160.772 27.805V5.77807C160.772 5.48347 160.806 5.2342 160.874 5.03024C160.964 4.82629 161.089 4.65633 161.248 4.52036L165.633 0.815208C165.746 0.724561 165.893 0.656576 166.075 0.611253C166.278 0.543269 166.494 0.509277 166.72 0.509277H170.256C170.754 0.509277 171.173 0.588592 171.513 0.747222C171.853 0.905853 172.193 1.16646 172.533 1.52904L174.879 4.24842L178.992 0.815208C179.105 0.724561 179.252 0.656576 179.433 0.611253C179.637 0.543269 179.853 0.509277 180.079 0.509277H185.178C185.722 0.509277 186.119 0.633915 186.368 0.883191C186.617 1.13247 186.742 1.52904 186.742 2.07292V24.0999C186.742 24.3945 186.696 24.6438 186.606 24.8477C186.538 25.0517 186.425 25.2216 186.266 25.3576L181.847 29.0288C181.756 29.1194 181.609 29.1987 181.405 29.2667C181.224 29.3347 181.02 29.3687 180.793 29.3687H175.694C175.15 29.3687 174.754 29.244 174.505 28.9948C174.255 28.7455 174.131 28.3489 174.131 27.805V23.76L173.383 22.8422V24.0999C173.383 24.3945 173.338 24.6438 173.247 24.8477C173.179 25.0517 173.066 25.2216 172.907 25.3576Z" fill="#2727E6"/>
<path fill-rule="evenodd" clip-rule="evenodd" d="M171.819 25.3236C172.25 25.3236 172.556 25.233 172.737 25.0517C172.941 24.8477 173.043 24.5305 173.043 24.0999V12.8825L178.856 19.9188V24.0999C178.856 24.5305 178.946 24.8477 179.128 25.0517C179.331 25.233 179.649 25.3236 180.079 25.3236H185.178C185.609 25.3236 185.915 25.233 186.096 25.0517C186.3 24.8477 186.402 24.5305 186.402 24.0999V2.07292C186.402 1.64235 186.3 1.33642 186.096 1.15513C185.915 0.951176 185.609 0.849199 185.178 0.849199H180.079C179.649 0.849199 179.331 0.951176 179.128 1.15513C178.946 1.33642 178.856 1.64235 178.856 2.07292V9.31326L172.261 1.76699C171.967 1.42707 171.661 1.18912 171.343 1.05315C171.049 0.917184 170.686 0.849199 170.256 0.849199H166.72C166.29 0.849199 165.973 0.951176 165.769 1.15513C165.587 1.33642 165.497 1.64235 165.497 2.07292V24.0999C165.497 24.5305 165.587 24.8477 165.769 25.0517C165.973 25.233 166.29 25.3236 166.72 25.3236H171.819ZM182.493 18.2532L169.984 4.18044C169.87 4.06713 169.78 3.98782 169.712 3.94249C169.644 3.89717 169.564 3.87451 169.474 3.87451C169.383 3.87451 169.292 3.9085 169.202 3.97649C169.111 4.04447 169.066 4.14645 169.066 4.28242V22.2643H169.406V4.3504V4.28242C169.428 4.25975 169.451 4.24842 169.474 4.24842C169.496 4.24842 169.519 4.25975 169.542 4.28242C169.587 4.30508 169.621 4.32774 169.644 4.3504L182.493 18.7631V22.2643H182.833V3.9085H182.493V18.2532Z" fill="white"/>
<path d="M151.699 27.7377C150.906 28.4175 149.796 28.9387 148.368 29.3013C146.941 29.6866 145.105 29.8792 142.861 29.8792C140.641 29.8792 138.816 29.6412 137.389 29.1653C135.984 28.7121 134.873 28.1002 134.057 27.3298C133.264 26.5593 132.709 25.6755 132.392 24.6784C132.097 23.6813 131.95 22.6502 131.95 21.5851V11.0135C131.95 9.97106 132.097 9.00794 132.392 8.12414C132.686 7.21769 133.219 6.4472 133.989 5.81267L138.408 2.14151C139.202 1.46167 140.301 0.940453 141.706 0.577869C143.133 0.192623 144.98 0 147.246 0C149.467 0 151.28 0.181292 152.685 0.543877C154.113 0.90646 155.223 1.41634 156.016 2.07353C156.832 2.70805 157.387 3.47854 157.682 4.385C157.977 5.2688 158.124 6.24324 158.124 7.30833V18.8997C158.124 19.9421 157.977 20.9052 157.682 21.789C157.387 22.6728 156.855 23.432 156.084 24.0665L151.699 27.7377ZM157.784 18.8997V7.30833C157.784 6.2659 157.625 5.32545 157.308 4.48698C157.014 3.62584 156.47 2.88934 155.677 2.27748C154.906 1.66562 153.83 1.18973 152.447 0.849807C151.088 0.509885 149.354 0.339924 147.246 0.339924C145.139 0.339924 143.394 0.509885 142.012 0.849807C140.629 1.18973 139.542 1.66562 138.748 2.27748C137.978 2.88934 137.434 3.62584 137.117 4.48698C136.822 5.32545 136.675 6.2659 136.675 7.30833V18.8997C136.675 19.9421 136.822 20.8939 137.117 21.755C137.434 22.5935 137.978 23.3187 138.748 23.9305C139.542 24.5197 140.629 24.9843 142.012 25.3242C143.394 25.6641 145.139 25.8341 147.246 25.8341C149.354 25.8341 151.088 25.6641 152.447 25.3242C153.83 24.9843 154.906 24.5197 155.677 23.9305C156.47 23.3187 157.014 22.5935 157.308 21.755C157.625 20.8939 157.784 19.9421 157.784 18.8997ZM154.079 18.1179C154.079 19.4776 153.592 20.588 152.617 21.4491C151.643 22.2876 149.83 22.7068 147.178 22.7068C144.527 22.7068 142.725 22.2876 141.774 21.4491C140.822 20.588 140.346 19.4776 140.346 18.1179V8.09015C140.346 6.73046 140.822 5.63138 141.774 4.79291C142.725 3.93177 144.527 3.5012 147.178 3.5012C149.83 3.5012 151.643 3.93177 152.617 4.79291C153.592 5.63138 154.079 6.73046 154.079 8.09015V18.1179ZM140.686 18.1179C140.686 19.3869 141.139 20.418 142.046 21.2112C142.952 21.9816 144.663 22.3669 147.178 22.3669C149.694 22.3669 151.416 21.9816 152.345 21.2112C153.274 20.418 153.739 19.3869 153.739 18.1179V8.09015C153.739 6.82111 153.274 5.80134 152.345 5.03085C151.416 4.2377 149.694 3.84112 147.178 3.84112C144.663 3.84112 142.952 4.2377 142.046 5.03085C141.139 5.80134 140.686 6.82111 140.686 8.09015V18.1179ZM144.391 17.676V8.53205C144.391 8.10148 144.561 7.7389 144.901 7.4443C145.241 7.12704 146.023 6.96841 147.246 6.96841C148.47 6.96841 149.252 7.12704 149.592 7.4443C149.932 7.7389 150.102 8.10148 150.102 8.53205V17.676C150.102 18.1292 149.932 18.5144 149.592 18.8317C149.252 19.1263 148.47 19.2736 147.246 19.2736C146.023 19.2736 145.241 19.1263 144.901 18.8317C144.561 18.5144 144.391 18.1292 144.391 17.676ZM144.731 17.676C144.731 17.9026 144.776 18.1065 144.867 18.2878C144.958 18.4465 145.128 18.5824 145.377 18.6957V12.2372C145.377 12.0106 145.332 11.818 145.241 11.6593C145.15 11.478 144.98 11.3421 144.731 11.2514V17.676Z" fill="#2727E6"/>
<path fill-rule="evenodd" clip-rule="evenodd" d="M157.784 18.8997V7.30833C157.784 6.2659 157.625 5.32545 157.308 4.48698C157.014 3.62584 156.47 2.88934 155.677 2.27748C154.906 1.66562 153.83 1.18973 152.447 0.849807C151.088 0.509885 149.354 0.339924 147.246 0.339924C145.139 0.339924 143.394 0.509885 142.012 0.849807C140.629 1.18973 139.542 1.66562 138.748 2.27748C137.978 2.88934 137.434 3.62584 137.117 4.48698C136.822 5.32545 136.675 6.2659 136.675 7.30833V18.8997C136.675 19.9421 136.822 20.8939 137.117 21.755C137.434 22.5935 137.978 23.3187 138.748 23.9305C139.542 24.5197 140.629 24.9843 142.012 25.3242C143.394 25.6641 145.139 25.8341 147.246 25.8341C149.354 25.8341 151.088 25.6641 152.447 25.3242C153.83 24.9843 154.906 24.5197 155.677 23.9305C156.47 23.3187 157.014 22.5935 157.308 21.755C157.625 20.8939 157.784 19.9421 157.784 18.8997ZM152.617 21.4491C153.592 20.588 154.079 19.4776 154.079 18.1179V8.09015C154.079 6.73046 153.592 5.63138 152.617 4.79291C151.643 3.93177 149.83 3.5012 147.178 3.5012C144.527 3.5012 142.725 3.93177 141.774 4.79291C140.822 5.63138 140.346 6.73046 140.346 8.09015V18.1179C140.346 19.4776 140.822 20.588 141.774 21.4491C142.725 22.2876 144.527 22.7068 147.178 22.7068C149.83 22.7068 151.643 22.2876 152.617 21.4491Z" fill="white"/>
<path fill-rule="evenodd" clip-rule="evenodd" d="M140.686 18.1179C140.686 19.3869 141.139 20.418 142.046 21.2112C142.952 21.9816 144.663 22.3669 147.178 22.3669C149.694 22.3669 151.416 21.9816 152.345 21.2112C153.274 20.418 153.739 19.3869 153.739 18.1179V8.09015C153.739 6.82111 153.274 5.80134 152.345 5.03085C151.416 4.2377 149.694 3.84112 147.178 3.84112C144.663 3.84112 142.952 4.2377 142.046 5.03085C141.139 5.80134 140.686 6.82111 140.686 8.09015V18.1179ZM144.391 8.53205V17.676C144.391 18.1292 144.561 18.5144 144.901 18.8317C145.241 19.1263 146.023 19.2736 147.246 19.2736C148.47 19.2736 149.252 19.1263 149.592 18.8317C149.932 18.5144 150.102 18.1292 150.102 17.676V8.53205C150.102 8.10148 149.932 7.7389 149.592 7.4443C149.252 7.12704 148.47 6.96841 147.246 6.96841C146.023 6.96841 145.241 7.12704 144.901 7.4443C144.561 7.7389 144.391 8.10148 144.391 8.53205Z" fill="white"/>
<path d="M144.731 17.676C144.731 17.9026 144.776 18.1065 144.867 18.2878C144.958 18.4465 145.128 18.5824 145.377 18.6957V12.2372C145.377 12.0106 145.332 11.818 145.241 11.6593C145.15 11.478 144.98 11.3421 144.731 11.2514V17.676Z" fill="white"/>
<path d="M123.858 29.3687H109.377C108.833 29.3687 108.436 29.244 108.187 28.9948C107.938 28.7455 107.813 28.3489 107.813 27.805V23.76C107.813 23.4654 107.847 23.2161 107.915 23.0121C108.006 22.8082 108.13 22.6382 108.289 22.5023L112.402 19.035V11.4548H109.377C108.833 11.4548 108.436 11.3301 108.187 11.0809C107.938 10.8316 107.813 10.435 107.813 9.89113V5.77807C107.813 5.48347 107.847 5.2342 107.915 5.03025C108.006 4.82629 108.13 4.65633 108.289 4.52036L112.674 0.815208C112.787 0.724561 112.935 0.656576 113.116 0.611253C113.32 0.543269 113.535 0.509277 113.762 0.509277H128.243C128.786 0.509277 129.183 0.633915 129.432 0.883191C129.682 1.13247 129.806 1.52904 129.806 2.07292V6.18598C129.806 6.48058 129.761 6.72986 129.67 6.93381C129.602 7.13776 129.489 7.30772 129.33 7.44369L125.285 10.8429V18.4912H128.243C128.786 18.4912 129.183 18.6158 129.432 18.8651C129.682 19.1144 129.806 19.5109 129.806 20.0548V24.0999C129.806 24.3945 129.761 24.6438 129.67 24.8477C129.602 25.0517 129.489 25.2216 129.33 25.3576L124.911 29.0288C124.821 29.1194 124.673 29.1987 124.469 29.2667C124.288 29.3347 124.084 29.3687 123.858 29.3687ZM113.762 25.3236H128.243C128.673 25.3236 128.979 25.233 129.16 25.0517C129.364 24.8477 129.466 24.5305 129.466 24.0999V20.0548C129.466 19.6242 129.364 19.3183 129.16 19.137C128.979 18.9331 128.673 18.8311 128.243 18.8311H124.945V7.4097H128.243C128.673 7.4097 128.979 7.31906 129.16 7.13776C129.364 6.93381 129.466 6.61655 129.466 6.18598V2.07292C129.466 1.64235 129.364 1.33642 129.16 1.15513C128.979 0.951176 128.673 0.849199 128.243 0.849199H113.762C113.331 0.849199 113.014 0.951176 112.81 1.15513C112.629 1.33642 112.538 1.64235 112.538 2.07292V6.18598C112.538 6.61655 112.629 6.93381 112.81 7.13776C113.014 7.31906 113.331 7.4097 113.762 7.4097H117.127V18.8311H113.762C113.331 18.8311 113.014 18.9331 112.81 19.137C112.629 19.3183 112.538 19.6242 112.538 20.0548V24.0999C112.538 24.5305 112.629 24.8477 112.81 25.0517C113.014 25.233 113.331 25.3236 113.762 25.3236ZM126.407 22.2643H115.597V21.9244H120.866V4.24842H115.597V3.9085H126.407V4.24842H121.206V21.9244H126.407V22.2643Z" fill="#2727E6"/>
<path fill-rule="evenodd" clip-rule="evenodd" d="M113.762 25.3236H128.243C128.673 25.3236 128.979 25.233 129.16 25.0517C129.364 24.8477 129.466 24.5305 129.466 24.0999V20.0548C129.466 19.6242 129.364 19.3183 129.16 19.137C128.979 18.9331 128.673 18.8311 128.243 18.8311H124.945V7.4097H128.243C128.673 7.4097 128.979 7.31906 129.16 7.13776C129.364 6.93381 129.466 6.61655 129.466 6.18598V2.07292C129.466 1.64235 129.364 1.33642 129.16 1.15513C128.979 0.951176 128.673 0.849199 128.243 0.849199H113.762C113.331 0.849199 113.014 0.951176 112.81 1.15513C112.629 1.33642 112.538 1.64235 112.538 2.07292V6.18598C112.538 6.61655 112.629 6.93381 112.81 7.13776C113.014 7.31906 113.331 7.4097 113.762 7.4097H117.127V18.8311H113.762C113.331 18.8311 113.014 18.9331 112.81 19.137C112.629 19.3183 112.538 19.6242 112.538 20.0548V24.0999C112.538 24.5305 112.629 24.8477 112.81 25.0517C113.014 25.233 113.331 25.3236 113.762 25.3236ZM115.597 22.2643H126.407V21.9244H121.206V4.24842H126.407V3.9085H115.597V4.24842H120.866V21.9244H115.597V22.2643Z" fill="white"/>
<path d="M88.5898 4.18044L101.099 18.2532V3.9085H101.439V22.2643H101.099V18.7631L88.2499 4.3504C88.2272 4.32774 88.1932 4.30508 88.1479 4.28242C88.1253 4.25975 88.1026 4.24842 88.0799 4.24842C88.0573 4.24842 88.0346 4.25975 88.012 4.28242C88.012 4.30508 88.012 4.32774 88.012 4.3504V22.2643H87.672V4.28242C87.672 4.14645 87.7174 4.04447 87.808 3.97649C87.8986 3.9085 87.9893 3.87451 88.0799 3.87451C88.1706 3.87451 88.2499 3.89717 88.3179 3.94249C88.3859 3.98782 88.4765 4.06713 88.5898 4.18044ZM90.4254 25.3236C90.856 25.3236 91.1619 25.233 91.3432 25.0517C91.5471 24.8477 91.6491 24.5305 91.6491 24.0999V12.8825L97.4618 19.9188V24.0999C97.4618 24.5305 97.5524 24.8477 97.7337 25.0517C97.9377 25.233 98.2549 25.3236 98.6855 25.3236H103.784C104.215 25.3236 104.521 25.233 104.702 25.0517C104.906 24.8477 105.008 24.5305 105.008 24.0999V2.07292C105.008 1.64235 104.906 1.33642 104.702 1.15513C104.521 0.951176 104.215 0.849199 103.784 0.849199H98.6855C98.2549 0.849199 97.9377 0.951176 97.7337 1.15513C97.5524 1.33642 97.4618 1.64235 97.4618 2.07292V9.31327L90.8673 1.76699C90.5727 1.42707 90.2668 1.18912 89.9495 1.05315C89.6549 0.917184 89.2923 0.849199 88.8618 0.849199H85.3266C84.896 0.849199 84.5787 0.951176 84.3748 1.15513C84.1935 1.33642 84.1028 1.64235 84.1028 2.07292V24.0999C84.1028 24.5305 84.1935 24.8477 84.3748 25.0517C84.5787 25.233 84.896 25.3236 85.3266 25.3236H90.4254ZM91.5132 25.3576L87.0942 29.0288C87.0035 29.1194 86.8562 29.1987 86.6523 29.2667C86.471 29.3347 86.267 29.3687 86.0404 29.3687H80.9416C80.3977 29.3687 80.0011 29.244 79.7518 28.9948C79.5026 28.7455 79.3779 28.3489 79.3779 27.805V5.77807C79.3779 5.48347 79.4119 5.2342 79.4799 5.03025C79.5706 4.82629 79.6952 4.65633 79.8538 4.52036L84.2388 0.815208C84.3521 0.724561 84.4994 0.656576 84.6807 0.611253C84.8847 0.543269 85.1 0.509277 85.3266 0.509277H88.8618C89.3603 0.509277 89.7796 0.588592 90.1195 0.747222C90.4594 0.905853 90.7993 1.16646 91.1392 1.52904L93.4847 4.24842L97.5978 0.815208C97.7111 0.724561 97.8584 0.656576 98.0397 0.611253C98.2436 0.543269 98.4589 0.509277 98.6855 0.509277H103.784C104.328 0.509277 104.725 0.633915 104.974 0.883191C105.223 1.13247 105.348 1.52904 105.348 2.07292V24.0999C105.348 24.3945 105.303 24.6438 105.212 24.8477C105.144 25.0517 105.031 25.2216 104.872 25.3576L100.453 29.0288C100.362 29.1194 100.215 29.1987 100.011 29.2667C99.8299 29.3347 99.626 29.3687 99.3994 29.3687H94.3005C93.7566 29.3687 93.3601 29.244 93.1108 28.9948C92.8615 28.7455 92.7369 28.3489 92.7369 27.805V23.76L91.989 22.8422V24.0999C91.989 24.3945 91.9437 24.6438 91.8531 24.8477C91.7851 25.0517 91.6718 25.2216 91.5132 25.3576Z" fill="#2727E6"/>
<path fill-rule="evenodd" clip-rule="evenodd" d="M90.4254 25.3236C90.856 25.3236 91.1619 25.233 91.3432 25.0517C91.5471 24.8477 91.6491 24.5305 91.6491 24.0999V12.8825L97.4618 19.9188V24.0999C97.4618 24.5305 97.5524 24.8477 97.7337 25.0517C97.9377 25.233 98.2549 25.3236 98.6855 25.3236H103.784C104.215 25.3236 104.521 25.233 104.702 25.0517C104.906 24.8477 105.008 24.5305 105.008 24.0999V2.07292C105.008 1.64235 104.906 1.33642 104.702 1.15513C104.521 0.951176 104.215 0.849199 103.784 0.849199H98.6855C98.2549 0.849199 97.9377 0.951176 97.7337 1.15513C97.5524 1.33642 97.4618 1.64235 97.4618 2.07292V9.31327L90.8673 1.76699C90.5727 1.42707 90.2668 1.18912 89.9495 1.05315C89.6549 0.917184 89.2923 0.849199 88.8618 0.849199H85.3266C84.896 0.849199 84.5787 0.951176 84.3748 1.15513C84.1935 1.33642 84.1028 1.64235 84.1028 2.07292V24.0999C84.1028 24.5305 84.1935 24.8477 84.3748 25.0517C84.5787 25.233 84.896 25.3236 85.3266 25.3236H90.4254ZM101.099 18.2532L88.5898 4.18044C88.4765 4.06713 88.3859 3.98782 88.3179 3.94249C88.2499 3.89717 88.1706 3.87451 88.0799 3.87451C87.9893 3.87451 87.8986 3.9085 87.808 3.97649C87.7174 4.04447 87.672 4.14645 87.672 4.28242V22.2643H88.012V4.3504V4.28242C88.0346 4.25975 88.0573 4.24842 88.0799 4.24842C88.1026 4.24842 88.1253 4.25975 88.1479 4.28242C88.1932 4.30508 88.2272 4.32774 88.2499 4.3504L101.099 18.7631V22.2643H101.439V3.9085H101.099V18.2532Z" fill="white"/>
<path d="M70.9115 29.3687H56.4308C55.887 29.3687 55.4904 29.244 55.2411 28.9948C54.9918 28.7455 54.8672 28.3489 54.8672 27.805V23.76C54.8672 23.4654 54.9012 23.2161 54.9692 23.0121C55.0598 22.8082 55.1845 22.6382 55.3431 22.5023L59.4561 19.035V11.4548H56.4308C55.887 11.4548 55.4904 11.3301 55.2411 11.0809C54.9918 10.8316 54.8672 10.435 54.8672 9.89113V5.77807C54.8672 5.48347 54.9012 5.2342 54.9692 5.03025C55.0598 4.82629 55.1845 4.65633 55.3431 4.52036L59.7281 0.815208C59.8414 0.724561 59.9887 0.656576 60.17 0.611253C60.3739 0.543269 60.5892 0.509277 60.8158 0.509277H75.2965C75.8404 0.509277 76.237 0.633915 76.4862 0.883191C76.7355 1.13247 76.8602 1.52904 76.8602 2.07292V6.18598C76.8602 6.48058 76.8148 6.72986 76.7242 6.93381C76.6562 7.13776 76.5429 7.30772 76.3843 7.44369L72.3392 10.8429V18.4912H75.2965C75.8404 18.4912 76.237 18.6158 76.4862 18.8651C76.7355 19.1144 76.8602 19.5109 76.8602 20.0548V24.0999C76.8602 24.3945 76.8148 24.6438 76.7242 24.8477C76.6562 25.0517 76.5429 25.2216 76.3843 25.3576L71.9653 29.0288C71.8746 29.1194 71.7273 29.1987 71.5234 29.2667C71.3421 29.3347 71.1381 29.3687 70.9115 29.3687ZM60.8158 25.3236H75.2965C75.7271 25.3236 76.033 25.233 76.2143 25.0517C76.4183 24.8477 76.5202 24.5305 76.5202 24.0999V20.0548C76.5202 19.6242 76.4183 19.3183 76.2143 19.137C76.033 18.9331 75.7271 18.8311 75.2965 18.8311H71.9993V7.4097H75.2965C75.7271 7.4097 76.033 7.31906 76.2143 7.13776C76.4183 6.93381 76.5202 6.61655 76.5202 6.18598V2.07292C76.5202 1.64235 76.4183 1.33642 76.2143 1.15513C76.033 0.951176 75.7271 0.849199 75.2965 0.849199H60.8158C60.3853 0.849199 60.068 0.951176 59.864 1.15513C59.6828 1.33642 59.5921 1.64235 59.5921 2.07292V6.18598C59.5921 6.61655 59.6828 6.93381 59.864 7.13776C60.068 7.31906 60.3853 7.4097 60.8158 7.4097H64.1811V18.8311H60.8158C60.3853 18.8311 60.068 18.9331 59.864 19.137C59.6828 19.3183 59.5921 19.6242 59.5921 20.0548V24.0999C59.5921 24.5305 59.6828 24.8477 59.864 25.0517C60.068 25.233 60.3853 25.3236 60.8158 25.3236ZM73.4609 22.2643H62.6514V21.9244H67.9202V4.24842H62.6514V3.9085H73.4609V4.24842H68.2601V21.9244H73.4609V22.2643Z" fill="#2727E6"/>
<path fill-rule="evenodd" clip-rule="evenodd" d="M60.8158 25.3236H75.2965C75.7271 25.3236 76.033 25.233 76.2143 25.0517C76.4183 24.8477 76.5202 24.5305 76.5202 24.0999V20.0548C76.5202 19.6242 76.4183 19.3183 76.2143 19.137C76.033 18.9331 75.7271 18.8311 75.2965 18.8311H71.9993V7.4097H75.2965C75.7271 7.4097 76.033 7.31906 76.2143 7.13776C76.4183 6.93381 76.5202 6.61655 76.5202 6.18598V2.07292C76.5202 1.64235 76.4183 1.33642 76.2143 1.15513C76.033 0.951176 75.7271 0.849199 75.2965 0.849199H60.8158C60.3853 0.849199 60.068 0.951176 59.864 1.15513C59.6828 1.33642 59.5921 1.64235 59.5921 2.07292V6.18598C59.5921 6.61655 59.6828 6.93381 59.864 7.13776C60.068 7.31906 60.3853 7.4097 60.8158 7.4097H64.1811V18.8311H60.8158C60.3853 18.8311 60.068 18.9331 59.864 19.137C59.6828 19.3183 59.5921 19.6242 59.5921 20.0548V24.0999C59.5921 24.5305 59.6828 24.8477 59.864 25.0517C60.068 25.233 60.3853 25.3236 60.8158 25.3236ZM62.6514 22.2643H73.4609V21.9244H68.2601V4.24842H73.4609V3.9085H62.6514V4.24842H67.9202V21.9244H62.6514V22.2643Z" fill="white"/>
<path d="M35.6545 29.3687H30.3857C29.8418 29.3687 29.4452 29.244 29.1959 28.9948C28.9467 28.7455 28.822 28.3489 28.822 27.805V5.77807C28.822 5.48347 28.856 5.2342 28.924 5.03025C29.0146 4.82629 29.1393 4.65633 29.2979 4.52036L33.6829 0.815208C33.7962 0.724561 33.9435 0.656576 34.1248 0.611253C34.3288 0.543269 34.544 0.509277 34.7707 0.509277H45.1723C46.7813 0.509277 48.1296 0.679238 49.2174 1.01916C50.3051 1.35908 51.1663 1.83497 51.8008 2.44683C52.4353 3.05869 52.8772 3.79519 53.1265 4.65633C53.3984 5.51747 53.5344 6.45792 53.5344 7.47769V11.8287C53.5344 12.9164 53.3757 13.9135 53.0585 14.82C52.7639 15.7038 52.2427 16.463 51.4948 17.0975L47.0759 20.7687C46.5093 21.2445 45.7728 21.6411 44.8664 21.9584C43.9826 22.253 42.8948 22.4229 41.6031 22.4683V24.0999C41.6031 24.3945 41.5578 24.6438 41.4671 24.8477C41.3992 25.0517 41.2858 25.2216 41.1272 25.3576L36.7082 29.0288C36.6176 29.1194 36.4703 29.1987 36.2663 29.2667C36.085 29.3347 35.8811 29.3687 35.6545 29.3687ZM40.0395 25.3236C40.47 25.3236 40.776 25.233 40.9573 25.0517C41.1612 24.8477 41.2632 24.5305 41.2632 24.0999V18.4572H45.1723C48.2543 18.4572 50.3618 17.8453 51.4948 16.6216C52.6279 15.3979 53.1945 13.8002 53.1945 11.8287V7.47769C53.1945 5.50614 52.6279 3.9085 51.4948 2.68478C50.3618 1.46106 48.2543 0.849199 45.1723 0.849199H34.7707C34.3401 0.849199 34.0228 0.951176 33.8189 1.15513C33.6376 1.33642 33.5469 1.64235 33.5469 2.07292V24.0999C33.5469 24.5305 33.6376 24.8477 33.8189 25.0517C34.0228 25.233 34.3401 25.3236 34.7707 25.3236H40.0395ZM44.6964 15.5678H37.694V22.2643H37.3541V3.9085H44.6964C45.7615 3.9085 46.6226 4.03314 47.2798 4.28242C47.9596 4.50903 48.4809 4.82629 48.8434 5.2342C49.206 5.64211 49.4553 6.12933 49.5913 6.69586C49.7272 7.2624 49.7952 7.87426 49.7952 8.53144V11.0469C49.7952 11.7041 49.7272 12.3159 49.5913 12.8825C49.4553 13.4263 49.206 13.9022 48.8434 14.3101C48.4809 14.6954 47.9596 15.0013 47.2798 15.2279C46.6226 15.4545 45.7615 15.5678 44.6964 15.5678ZM37.694 15.2279H44.6964C45.6935 15.2279 46.498 15.1259 47.1098 14.922C47.7444 14.718 48.2316 14.4348 48.5715 14.0722C48.9114 13.6869 49.138 13.245 49.2514 12.7465C49.3873 12.2253 49.4553 11.6587 49.4553 11.0469V8.53144C49.4553 7.91958 49.3873 7.35305 49.2514 6.83183C49.138 6.31062 48.9114 5.85739 48.5715 5.47214C48.2316 5.0869 47.7444 4.7923 47.1098 4.58835C46.498 4.36173 45.6935 4.24842 44.6964 4.24842H37.694V15.2279ZM41.1952 7.20575H44.2545C44.9117 7.20575 45.3422 7.37571 45.5462 7.71563C45.7502 8.05555 45.8521 8.4408 45.8521 8.87137V10.673C45.8521 11.1035 45.7502 11.4888 45.5462 11.8287C45.3422 12.1686 44.9117 12.3386 44.2545 12.3386H41.1952V7.20575Z" fill="#2727E6"/>
<path fill-rule="evenodd" clip-rule="evenodd" d="M40.0395 25.3236C40.47 25.3236 40.776 25.233 40.9573 25.0517C41.1612 24.8477 41.2632 24.5305 41.2632 24.0999V18.4572H45.1723C48.2543 18.4572 50.3618 17.8453 51.4948 16.6216C52.6279 15.3979 53.1945 13.8002 53.1945 11.8287V7.47769C53.1945 5.50614 52.6279 3.9085 51.4948 2.68478C50.3618 1.46106 48.2543 0.849199 45.1723 0.849199H34.7707C34.3401 0.849199 34.0228 0.951176 33.8189 1.15513C33.6376 1.33642 33.5469 1.64235 33.5469 2.07292V24.0999C33.5469 24.5305 33.6376 24.8477 33.8189 25.0517C34.0228 25.233 34.3401 25.3236 34.7707 25.3236H40.0395ZM37.694 15.5678H44.6964C45.7615 15.5678 46.6226 15.4545 47.2798 15.2279C47.9596 15.0013 48.4809 14.6954 48.8434 14.3101C49.206 13.9022 49.4553 13.4263 49.5913 12.8825C49.7272 12.3159 49.7952 11.7041 49.7952 11.0469V8.53144C49.7952 7.87426 49.7272 7.2624 49.5913 6.69586C49.4553 6.12933 49.206 5.64211 48.8434 5.2342C48.4809 4.82629 47.9596 4.50903 47.2798 4.28242C46.6226 4.03314 45.7615 3.9085 44.6964 3.9085H37.3541V22.2643H37.694V15.5678Z" fill="white"/>
<path fill-rule="evenodd" clip-rule="evenodd" d="M37.694 15.2279H44.6964C45.6935 15.2279 46.498 15.1259 47.1098 14.922C47.7444 14.718 48.2316 14.4348 48.5715 14.0722C48.9114 13.6869 49.138 13.245 49.2514 12.7465C49.3873 12.2253 49.4553 11.6587 49.4553 11.0469V8.53144C49.4553 7.91958 49.3873 7.35305 49.2514 6.83183C49.138 6.31062 48.9114 5.85739 48.5715 5.47214C48.2316 5.0869 47.7444 4.7923 47.1098 4.58835C46.498 4.36173 45.6935 4.24842 44.6964 4.24842H37.694V15.2279ZM44.2545 7.20575H41.1952V12.3386H44.2545C44.9117 12.3386 45.3422 12.1686 45.5462 11.8287C45.7502 11.4888 45.8521 11.1035 45.8521 10.673V8.87137C45.8521 8.4408 45.7502 8.05555 45.5462 7.71563C45.3422 7.37571 44.9117 7.20575 44.2545 7.20575Z" fill="white"/>
<path d="M19.7495 27.7377C18.9563 28.4175 17.8459 28.9387 16.4183 29.3013C14.9906 29.6866 13.155 29.8792 10.9115 29.8792C8.69068 29.8792 6.86643 29.6412 5.43876 29.1653C4.03375 28.7121 2.92333 28.1002 2.10752 27.3298C1.31437 26.5593 0.75916 25.6755 0.441899 24.6784C0.1473 23.6813 0 22.6502 0 21.5851V11.0135C0 9.97106 0.1473 9.00794 0.441899 8.12414C0.736498 7.21769 1.26904 6.4472 2.03953 5.81267L6.45853 2.14151C7.25168 1.46167 8.35076 0.940453 9.75577 0.577869C11.1834 0.192623 13.0304 0 15.2965 0C17.5173 0 19.3303 0.181292 20.7353 0.543877C22.1629 0.90646 23.2734 1.41634 24.0665 2.07353C24.8823 2.70805 25.4375 3.47854 25.7321 4.385C26.0267 5.2688 26.174 6.24324 26.174 7.30833V18.8997C26.174 19.9421 26.0267 20.9052 25.7321 21.789C25.4375 22.6728 24.905 23.432 24.1345 24.0665L19.7495 27.7377ZM25.8341 18.8997V7.30833C25.8341 6.2659 25.6755 5.32545 25.3582 4.48698C25.0636 3.62584 24.5197 2.88934 23.7266 2.27748C22.9561 1.66562 21.8797 1.18973 20.4973 0.849807C19.1376 0.509885 17.404 0.339924 15.2965 0.339924C13.189 0.339924 11.4441 0.509885 10.0617 0.849807C8.67935 1.18973 7.5916 1.66562 6.79845 2.27748C6.02796 2.88934 5.48408 3.62584 5.16682 4.48698C4.87222 5.32545 4.72492 6.2659 4.72492 7.30833V18.8997C4.72492 19.9421 4.87222 20.8939 5.16682 21.755C5.48408 22.5935 6.02796 23.3187 6.79845 23.9305C7.5916 24.5197 8.67935 24.9843 10.0617 25.3242C11.4441 25.6641 13.189 25.8341 15.2965 25.8341C17.404 25.8341 19.1376 25.6641 20.4973 25.3242C21.8797 24.9843 22.9561 24.5197 23.7266 23.9305C24.5197 23.3187 25.0636 22.5935 25.3582 21.755C25.6755 20.8939 25.8341 19.9421 25.8341 18.8997ZM22.1289 18.1179C22.1289 19.4776 21.6417 20.588 20.6673 21.4491C19.6928 22.2876 17.8799 22.7068 15.2285 22.7068C12.5771 22.7068 10.7755 22.2876 9.82376 21.4491C8.87197 20.588 8.39608 19.4776 8.39608 18.1179V8.09015C8.39608 6.73046 8.87197 5.63138 9.82376 4.79291C10.7755 3.93177 12.5771 3.5012 15.2285 3.5012C17.8799 3.5012 19.6928 3.93177 20.6673 4.79291C21.6417 5.63138 22.1289 6.73046 22.1289 8.09015V18.1179ZM8.736 18.1179C8.736 19.3869 9.18923 20.418 10.0957 21.2112C11.0022 21.9816 12.7131 22.3669 15.2285 22.3669C17.7439 22.3669 19.4662 21.9816 20.3953 21.2112C21.3245 20.418 21.789 19.3869 21.789 18.1179V8.09015C21.789 6.82111 21.3245 5.80134 20.3953 5.03085C19.4662 4.2377 17.7439 3.84112 15.2285 3.84112C12.7131 3.84112 11.0022 4.2377 10.0957 5.03085C9.18923 5.80134 8.736 6.82111 8.736 8.09015V18.1179ZM12.4412 17.676V8.53205C12.4412 8.10148 12.6111 7.7389 12.951 7.4443C13.291 7.12704 14.0728 6.96841 15.2965 6.96841C16.5202 6.96841 17.302 7.12704 17.642 7.4443C17.9819 7.7389 18.1519 8.10148 18.1519 8.53205V17.676C18.1519 18.1292 17.9819 18.5144 17.642 18.8317C17.302 19.1263 16.5202 19.2736 15.2965 19.2736C14.0728 19.2736 13.291 19.1263 12.951 18.8317C12.6111 18.5144 12.4412 18.1292 12.4412 17.676ZM12.7811 17.676C12.7811 17.9026 12.8264 18.1065 12.9171 18.2878C13.0077 18.4465 13.1777 18.5824 13.4269 18.6957V12.2372C13.4269 12.0106 13.3816 11.818 13.291 11.6593C13.2003 11.478 13.0304 11.3421 12.7811 11.2514V17.676Z" fill="#2727E6"/>
<path fill-rule="evenodd" clip-rule="evenodd" d="M25.8341 18.8997V7.30833C25.8341 6.2659 25.6755 5.32545 25.3582 4.48698C25.0636 3.62584 24.5197 2.88934 23.7266 2.27748C22.9561 1.66562 21.8797 1.18973 20.4973 0.849807C19.1376 0.509885 17.404 0.339924 15.2965 0.339924C13.189 0.339924 11.4441 0.509885 10.0617 0.849807C8.67935 1.18973 7.5916 1.66562 6.79845 2.27748C6.02796 2.88934 5.48408 3.62584 5.16682 4.48698C4.87222 5.32545 4.72492 6.2659 4.72492 7.30833V18.8997C4.72492 19.9421 4.87222 20.8939 5.16682 21.755C5.48408 22.5935 6.02796 23.3187 6.79845 23.9305C7.5916 24.5197 8.67935 24.9843 10.0617 25.3242C11.4441 25.6641 13.189 25.8341 15.2965 25.8341C17.404 25.8341 19.1376 25.6641 20.4973 25.3242C21.8797 24.9843 22.9561 24.5197 23.7266 23.9305C24.5197 23.3187 25.0636 22.5935 25.3582 21.755C25.6755 20.8939 25.8341 19.9421 25.8341 18.8997ZM20.6673 21.4491C21.6417 20.588 22.1289 19.4776 22.1289 18.1179V8.09015C22.1289 6.73046 21.6417 5.63138 20.6673 4.79291C19.6928 3.93177 17.8799 3.5012 15.2285 3.5012C12.5771 3.5012 10.7755 3.93177 9.82376 4.79291C8.87197 5.63138 8.39608 6.73046 8.39608 8.09015V18.1179C8.39608 19.4776 8.87197 20.588 9.82376 21.4491C10.7755 22.2876 12.5771 22.7068 15.2285 22.7068C17.8799 22.7068 19.6928 22.2876 20.6673 21.4491Z" fill="white"/>
<path fill-rule="evenodd" clip-rule="evenodd" d="M8.736 18.1179C8.736 19.3869 9.18923 20.418 10.0957 21.2112C11.0022 21.9816 12.7131 22.3669 15.2285 22.3669C17.7439 22.3669 19.4662 21.9816 20.3953 21.2112C21.3245 20.418 21.789 19.3869 21.789 18.1179V8.09015C21.789 6.82111 21.3245 5.80134 20.3953 5.03085C19.4662 4.2377 17.7439 3.84112 15.2285 3.84112C12.7131 3.84112 11.0022 4.2377 10.0957 5.03085C9.18923 5.80134 8.736 6.82111 8.736 8.09015V18.1179ZM12.4412 8.53205V17.676C12.4412 18.1292 12.6111 18.5144 12.951 18.8317C13.291 19.1263 14.0728 19.2736 15.2965 19.2736C16.5202 19.2736 17.302 19.1263 17.642 18.8317C17.9819 18.5144 18.1519 18.1292 18.1519 17.676V8.53205C18.1519 8.10148 17.9819 7.7389 17.642 7.4443C17.302 7.12704 16.5202 6.96841 15.2965 6.96841C14.0728 6.96841 13.291 7.12704 12.951 7.4443C12.6111 7.7389 12.4412 8.10148 12.4412 8.53205Z" fill="white"/>
<path d="M12.7811 17.676C12.7811 17.9026 12.8264 18.1065 12.9171 18.2878C13.0077 18.4465 13.1777 18.5824 13.4269 18.6957V12.2372C13.4269 12.0106 13.3816 11.818 13.291 11.6593C13.2003 11.478 13.0304 11.3421 12.7811 11.2514V17.676Z" fill="white"/>
</svg>
